<svg width="16" height="32" viewBox="0 0 16 32" fill="none" xmlns="http://www.w3.org/2000/svg">
<path d="M0.481542 17.0432H3.75419V31.4839C3.75419 31.769 3.96973 32 4.23574 32H9.78464C10.0506 32 10.2662 31.769 10.2662 31.4839V17.1112H14.0284C14.273 17.1112 14.4788 16.9145 14.5067 16.654L15.0781 11.3377C15.0938 11.1914 15.0506 11.045 14.9593 10.9352C14.8679 10.8254 14.7371 10.7625 14.5999 10.7625H10.2664V7.42999C10.2664 6.42539 10.771 5.91597 11.7665 5.91597C11.9083 5.91597 14.5999 5.91597 14.5999 5.91597C14.8659 5.91597 15.0814 5.68485 15.0814 5.39985V0.519948C15.0814 0.234839 14.8659 0.00381935 14.5999 0.00381935H10.695C10.6675 0.00237419 10.6063 0 10.5162 0C9.83867 0 7.48364 0.142555 5.62335 1.97688C3.56216 4.0096 3.84867 6.44346 3.91715 6.86545V10.7624H0.481542C0.215538 10.7624 0 10.9934 0 11.2786V16.527C0 16.8121 0.215538 17.0432 0.481542 17.0432Z" fill="#23417f"/>
</svg>
