<svg width="54" height="54" viewBox="0 0 54 54" fill="none" xmlns="http://www.w3.org/2000/svg">
<rect width="54" height="54" rx="10" fill="#3D3D3D"/>
<path fill-rule="evenodd" clip-rule="evenodd" d="M37.433 16.8857H43.3926C44.5391 16.8857 45.4865 17.8205 45.4866 18.9668V35.8614C45.4866 37.0078 44.5391 37.9874 43.3927 37.9874H38.2054C36.2184 40.2743 33.2696 41.7794 29.9832 41.7794C26.6967 41.7794 23.7479 40.2743 21.7608 37.9874H11.0939C9.9474 37.9874 9 37.0078 9 35.8614V18.9668C9 17.8205 9.9474 16.8857 11.0939 16.8857H17.0535L19.042 12.739C19.2497 12.3027 19.771 12 20.2545 12H34.232C34.7155 12 35.2368 12.3027 35.4447 12.7391L37.433 16.8857ZM18.1476 23.8503C18.4346 23.8503 18.6674 23.6176 18.6674 23.3306V21.0437C18.6674 20.7567 18.4346 20.5239 18.1476 20.5239H13.6778C13.3907 20.5239 13.158 20.7567 13.158 21.0437V23.3306C13.158 23.6176 13.3907 23.8503 13.6778 23.8503H18.1476ZM21.1323 30.9066C21.1323 35.7949 25.0947 39.7574 29.9831 39.7574C34.8713 39.7574 38.8338 35.7949 38.8338 30.9066C38.8338 26.0181 34.8712 22.0556 29.9831 22.0556C25.0947 22.0556 21.1323 26.0181 21.1323 30.9066ZM23.5255 30.9065C23.5255 27.3457 26.4225 24.4488 29.9832 24.4488C30.8444 24.4488 31.5425 25.1468 31.5425 26.008C31.5425 26.8692 30.8443 27.5673 29.9832 27.5673C28.1419 27.5673 26.644 29.0652 26.644 30.9065C26.644 31.7676 25.9459 32.4657 25.0848 32.4657C24.2236 32.4657 23.5255 31.7676 23.5255 30.9065Z" fill="#F3A660"/>
</svg>
