<svg width="33" height="32" viewBox="0 0 33 32" fill="none" xmlns="http://www.w3.org/2000/svg">
<path d="M16.0815 32C24.9181 32 32.0815 24.8366 32.0815 16C32.0815 7.16344 24.9181 0 16.0815 0C7.24499 0 0.081543 7.16344 0.081543 16C0.081543 24.8366 7.24499 32 16.0815 32Z" fill="#F3A660"/>
<path d="M22.649 6.41931H9.5148C7.852 6.41931 6.50293 7.76838 6.50293 9.43404V22.5682C6.50293 24.231 7.852 25.5801 9.5148 25.5801H22.649C24.3118 25.5801 25.6608 24.231 25.6608 22.5682V9.43404C25.6608 7.76838 24.3118 6.41931 22.649 6.41931ZM20.6122 8.63543L23.0195 8.62973H23.0252C23.2562 8.62688 23.4444 8.81512 23.4444 9.04329V11.4591C23.4444 11.6901 23.259 11.8755 23.028 11.8755L20.6236 11.884C20.3926 11.884 20.2072 11.6986 20.2072 11.4705L20.1987 9.0547C20.1958 8.82368 20.3812 8.63828 20.6122 8.63543ZM13.1456 14.354C13.2083 14.2456 13.2739 14.1372 13.3481 14.0346C13.9613 13.1846 14.9567 12.6284 16.0805 12.6284C17.2071 12.6284 18.2025 13.1846 18.8157 14.0346C18.8898 14.1372 18.9554 14.2456 19.0182 14.3568C19.292 14.8417 19.4546 15.4036 19.4546 15.9997C19.4546 17.8593 17.9401 19.3709 16.0805 19.3709C14.2209 19.3709 12.7092 17.8593 12.7092 15.9997C12.7089 15.4036 12.8689 14.8417 13.1456 14.354ZM23.7955 21.878C23.7955 22.8905 22.9713 23.7148 21.9587 23.7148H10.205C9.19251 23.7148 8.36824 22.8905 8.36824 21.878V14.0346H11.2289C11.1576 14.2085 11.0949 14.3911 11.0436 14.5736C10.9124 15.0271 10.8439 15.5063 10.8439 15.9997C10.8439 18.8889 13.1941 21.2391 16.0805 21.2391C18.9697 21.2391 21.3199 18.8889 21.3199 15.9997C21.3199 15.5063 21.2486 15.0271 21.1202 14.5736C21.066 14.3911 21.0061 14.2085 20.9348 14.0346H23.7955V21.878Z" fill="white"/>
</svg>
