<svg width="22" height="26" viewBox="0 0 22 26" fill="none" xmlns="http://www.w3.org/2000/svg">
<path d="M12.7416 24.6365H7.32362C6.94701 24.6365 6.64185 24.9416 6.64185 25.3182C6.64185 25.6949 6.94701 26 7.32362 26H12.7416C13.1182 26 13.4234 25.6949 13.4234 25.3182C13.4234 24.9416 13.1181 24.6365 12.7416 24.6365Z" fill="#23417f"/>
<path d="M1.94 6V20H10.18V18.32H3.7V13.38H8.78V11.7H3.7V7.68H9.98V6H1.94ZM19.5133 8.08C18.8333 6.76 17.8533 5.84 15.8733 5.84C14.0333 5.84 12.4333 7.32 12.4333 9.4C12.4333 11.56 14.0133 12.44 15.8333 13.3C17.1933 13.94 18.4733 14.66 18.4733 16.02C18.4733 16.66 18.2733 17.26 17.9333 17.68C17.4933 18.2 16.7533 18.48 16.0333 18.48C14.2333 18.48 13.4933 17.12 13.0333 15.46L11.5133 16.38C11.9733 18.56 13.7133 20.16 16.0333 20.16C17.2733 20.16 18.3933 19.68 19.1533 18.84C19.8333 18.1 20.2333 17.12 20.2333 15.98C20.2333 13.72 18.4733 12.76 16.8933 11.96C15.4133 11.22 14.1933 10.64 14.1933 9.26C14.1933 8.36 14.8733 7.52 15.8733 7.52C16.7133 7.52 17.4133 7.78 18.0933 9L19.5133 8.08Z" fill="#23417f"/>
</svg>
