<svg width="239" height="140" viewBox="0 0 239 140" fill="none" xmlns="http://www.w3.org/2000/svg">
<path d="M117.94 34.7084C117.27 34.9929 116.576 35.2043 115.858 35.3984C115.104 35.6013 114.325 35.624 113.518 35.624C112.141 35.624 110.799 35.1864 109.492 34.3894C108.185 33.5936 107.128 32.3205 106.321 30.6102C105.514 28.8998 105.11 26.9974 105.11 24.924C105.11 22.3691 105.718 20.162 106.934 18.3122C108.386 16.1209 110.506 15.0223 113.292 15.0223C115.336 15.0223 117.009 15.6492 118.311 16.9C119.214 17.7659 119.951 19.3433 120.521 20.766H121.086L120.521 14.2217H119.924C119.892 14.7907 119.803 14.9711 119.658 15.1578C119.513 15.345 119.338 15.3572 119.133 15.3572C118.929 15.3572 118.525 15.2045 117.923 14.98C116.729 14.5418 115.807 14.2384 115.155 14.1101C114.504 13.9818 113.781 13.9072 112.985 13.9072C110.801 13.9072 108.908 14.3671 107.305 15.2972C105.39 16.4197 103.884 18.0205 102.787 20.1053C101.862 21.8587 101.399 23.6911 101.399 25.604C101.399 28.2448 102.222 30.5749 103.868 32.5954C106.063 35.2891 109.274 36.6353 113.502 36.6353C114.975 36.6353 116.429 36.4802 117.634 36.1701C118.838 35.8605 119.979 35.3736 121.411 34.7107V34.7084H117.94Z" fill="#23417f"/>
<path fill-rule="evenodd" clip-rule="evenodd" d="M115.906 35.5737C115.127 35.7834 114.326 35.8056 113.518 35.8056C112.1 35.8056 110.726 35.3548 109.396 34.5442C108.051 33.7254 106.973 32.4211 106.155 30.6873C105.336 28.9504 104.928 27.0213 104.928 24.924C104.928 22.3396 105.543 20.0966 106.781 18.2128L106.782 18.2123C108.27 15.9669 110.448 14.8407 113.292 14.8407C115.377 14.8407 117.097 15.4816 118.437 16.7693C119.348 17.642 120.082 19.1938 120.645 20.5844H120.887L120.353 14.4033H120.094C120.076 14.6064 120.048 14.7609 120.007 14.8879C119.955 15.0537 119.884 15.1643 119.802 15.2687C119.707 15.3922 119.595 15.464 119.471 15.5015C119.355 15.5366 119.235 15.5389 119.133 15.5389C118.998 15.5389 118.819 15.4908 118.62 15.4252C118.427 15.3617 118.19 15.2733 117.914 15.1704L117.86 15.1503C117.86 15.1503 117.859 15.1502 117.859 15.1501C116.665 14.7118 115.755 14.4134 115.12 14.2883C114.481 14.1623 113.77 14.0889 112.985 14.0889C110.828 14.0889 108.967 14.5429 107.398 15.4539C105.514 16.5581 104.031 18.1329 102.949 20.1895L102.949 20.1897C102.037 21.9179 101.582 23.7215 101.582 25.604C101.582 28.2039 102.391 30.4935 104.01 32.4811C106.163 35.1232 109.316 36.4537 113.502 36.4537C114.964 36.4537 116.402 36.2996 117.588 35.9942C118.559 35.7447 119.49 35.3778 120.58 34.89H117.977C117.306 35.172 116.615 35.3821 115.906 35.5737ZM117.94 34.7084C117.27 34.9929 116.576 35.2043 115.858 35.3984C115.104 35.6013 114.325 35.624 113.518 35.624C112.141 35.624 110.799 35.1864 109.492 34.3894C108.185 33.5936 107.128 32.3205 106.321 30.6102C105.514 28.8998 105.11 26.9974 105.11 24.924C105.11 22.3691 105.718 20.162 106.934 18.3122C108.386 16.1209 110.506 15.0223 113.292 15.0223C115.336 15.0223 117.009 15.6492 118.311 16.9C119.214 17.7659 119.951 19.3433 120.521 20.766H121.086L120.521 14.2217H119.924C119.892 14.7907 119.803 14.9711 119.658 15.1578C119.513 15.345 119.338 15.3572 119.133 15.3572C118.935 15.3572 118.549 15.2134 117.976 14.9998L117.923 14.98C116.729 14.5418 115.807 14.2384 115.155 14.1101C114.504 13.9818 113.781 13.9072 112.985 13.9072C110.801 13.9072 108.908 14.3671 107.305 15.2972C105.39 16.4197 103.884 18.0205 102.787 20.1053C101.862 21.8587 101.399 23.6911 101.399 25.604C101.399 28.2448 102.222 30.5749 103.868 32.5954C106.063 35.2891 109.274 36.6353 113.502 36.6353C114.975 36.6353 116.429 36.4802 117.634 36.1701C118.727 35.8891 119.768 35.4621 121.021 34.89C121.149 34.8317 121.279 34.7719 121.411 34.7107V34.7084H117.94Z" fill="#23417f"/>
<path d="M117.093 29.5113C117.427 29.7042 117.795 29.8465 117.903 30.1137C118.043 30.4665 118.262 31.111 118.262 32.2224V36.0571L121.411 34.7989V32.2224C121.411 31.1537 121.301 30.4457 121.431 30.0977C121.559 29.7503 121.703 29.6667 122.037 29.4956C122.5 29.2495 122.902 29.3019 123.419 29.3019H124.274V28.4483H114.826V29.3019H115.609C116.125 29.3022 116.62 29.2546 117.093 29.5113Z" fill="#23417f"/>
<path fill-rule="evenodd" clip-rule="evenodd" d="M117.183 29.3531L117.185 29.3543C117.251 29.3928 117.319 29.4291 117.389 29.4664C117.403 29.474 117.418 29.4817 117.432 29.4894C117.515 29.5341 117.601 29.581 117.681 29.6313C117.836 29.7293 117.997 29.8574 118.073 30.046L118.073 30.0473C118.219 30.4169 118.444 31.084 118.444 32.2224V35.7884L121.228 34.6761V32.2224C121.228 31.8438 121.215 31.5138 121.202 31.2247C121.198 31.1085 121.193 30.999 121.19 30.8955C121.179 30.5497 121.18 30.2481 121.259 30.0348C121.33 29.8436 121.412 29.7079 121.533 29.5968C121.648 29.492 121.79 29.4179 121.952 29.3348C122.388 29.1032 122.788 29.1103 123.2 29.1177C123.272 29.119 123.345 29.1203 123.419 29.1203H124.092V28.6299H115.008V29.1203H115.609C115.675 29.1203 115.743 29.1194 115.811 29.1184C116.249 29.1123 116.727 29.1057 117.181 29.3519L117.183 29.3531ZM114.826 29.3019V28.4483H124.274V29.3019H123.419C123.34 29.3019 123.263 29.3006 123.189 29.2995C122.778 29.2928 122.429 29.2872 122.037 29.4956C121.703 29.6667 121.559 29.7503 121.431 30.0977C121.348 30.3211 121.363 30.6929 121.385 31.2133C121.397 31.5034 121.411 31.8398 121.411 32.2224V34.7989L118.262 36.0571V32.2224C118.262 31.111 118.043 30.4665 117.903 30.1137C117.818 29.9021 117.569 29.7688 117.303 29.6267C117.233 29.5894 117.162 29.5514 117.093 29.5113C116.684 29.2897 116.26 29.2949 115.819 29.3002C115.749 29.3011 115.679 29.3019 115.609 29.3019H114.826Z" fill="#23417f"/>
<path d="M134.64 30.098C134.764 29.7506 134.934 29.667 135.278 29.4959C135.74 29.2498 136.166 29.3022 136.682 29.3022H137.446V28.4486H128.283V29.3022H128.873C129.389 29.3022 129.878 29.2547 130.341 29.5113C130.685 29.7042 131.013 29.8465 131.121 30.1137C131.26 30.4665 131.433 31.111 131.433 32.2224V38.6919H121.411V36.7502L118.262 38.0085V46.2541C118.262 47.5584 117.984 48.5213 117.726 48.8636C117.317 49.3877 116.512 49.7892 115.609 49.7892H114.826V50.3583H124.274V49.7892H123.419C122.902 49.7892 122.413 49.5212 121.95 49.2642C121.606 49.0713 121.554 48.7723 121.447 48.5051C121.307 48.1522 121.411 47.355 121.411 46.2541V39.8301H131.433V46.2538C131.433 47.5581 131.196 48.521 130.927 48.8633C130.518 49.3874 129.766 49.7889 128.873 49.7889H128.283V50.358H137.446V49.7889H136.683C136.167 49.7889 135.671 49.5209 135.198 49.2639C134.864 49.071 134.772 48.772 134.664 48.5048C134.525 48.152 134.582 47.3547 134.582 46.2538V32.2224C134.582 31.1539 134.516 30.446 134.64 30.098Z" fill="#23417f"/>
<path fill-rule="evenodd" clip-rule="evenodd" d="M134.467 30.0377L134.468 30.0373C134.538 29.8403 134.627 29.7033 134.758 29.5927C134.875 29.4927 135.021 29.4204 135.181 29.3412L135.194 29.3346C135.63 29.1033 136.047 29.1106 136.463 29.118C136.536 29.1193 136.609 29.1206 136.682 29.1206H137.263V28.6302H128.466V29.1206H128.873C128.939 29.1206 129.006 29.1196 129.074 29.1186C129.511 29.1123 129.984 29.1055 130.43 29.3527L130.431 29.3531C130.476 29.3782 130.522 29.4036 130.57 29.4291C130.691 29.4953 130.816 29.5632 130.922 29.6342C131.072 29.7351 131.217 29.8628 131.29 30.0462L131.291 30.0473C131.44 30.4244 131.615 31.0919 131.615 32.2224V38.8735H121.228V37.019L118.444 38.1312V46.2541C118.444 46.9186 118.374 47.4989 118.269 47.9597C118.165 48.4144 118.024 48.7706 117.872 48.9725L117.871 48.9737L117.87 48.9749C117.422 49.5489 116.561 49.9708 115.609 49.9708H115.008V50.1766H124.092V49.9708H123.419C122.848 49.9708 122.317 49.6758 121.864 49.4242L121.861 49.4227L121.861 49.4224C121.509 49.2258 121.401 48.9193 121.321 48.6901C121.306 48.6478 121.292 48.6082 121.277 48.5724L121.277 48.5717C121.232 48.4578 121.21 48.3201 121.2 48.1719C121.19 48.0218 121.19 47.8479 121.194 47.656C121.197 47.526 121.202 47.3877 121.207 47.2407C121.217 46.9474 121.229 46.6196 121.229 46.2541V39.6485H131.616V46.2538C131.616 46.9163 131.556 47.4956 131.46 47.9561C131.366 48.4089 131.233 48.7695 131.071 48.9749C130.626 49.5456 129.819 49.9705 128.873 49.9705H128.466V50.1764H137.263V49.9705H136.683C136.118 49.9705 135.587 49.6821 135.128 49.4327L135.108 49.4222L135.106 49.4209C134.744 49.2118 134.619 48.8897 134.523 48.6444C134.513 48.6195 134.504 48.5954 134.495 48.5723L134.494 48.5712C134.41 48.3583 134.391 48.0364 134.388 47.6613C134.387 47.468 134.39 47.2438 134.393 46.9986C134.396 46.7663 134.4 46.5152 134.4 46.2538V32.2224C134.4 31.9571 134.395 31.7139 134.391 31.4921C134.391 31.4606 134.39 31.4296 134.389 31.3989C134.386 31.2141 134.382 31.044 134.382 30.8906C134.381 30.5414 134.394 30.2459 134.467 30.0377ZM137.446 49.7889V50.358H128.283V49.7889H128.873C129.766 49.7889 130.518 49.3874 130.927 48.8633C131.196 48.521 131.433 47.5581 131.433 46.2538V39.8301H121.411V46.2541C121.411 46.6224 121.4 46.9568 121.389 47.2519C121.369 47.8387 121.354 48.2703 121.447 48.5051C121.465 48.5502 121.482 48.5962 121.498 48.6425C121.58 48.8703 121.664 49.1039 121.95 49.2642C122.413 49.5212 122.902 49.7892 123.419 49.7892H124.274V50.3583H114.826V49.7892H115.609C116.512 49.7892 117.317 49.3877 117.726 48.8636C117.984 48.5213 118.262 47.5584 118.262 46.2541V38.0085L121.411 36.7502V38.6919H131.433V32.2224C131.433 31.111 131.26 30.4665 131.121 30.1137C131.029 29.8855 130.776 29.7484 130.49 29.5931C130.441 29.5666 130.391 29.5395 130.341 29.5113C129.941 29.2896 129.522 29.2949 129.082 29.3004C129.013 29.3013 128.943 29.3022 128.873 29.3022H128.283V28.4486H137.446V29.3022H136.682C136.604 29.3022 136.527 29.301 136.452 29.2998C136.036 29.2931 135.67 29.2873 135.278 29.4959L135.276 29.4971C134.933 29.6673 134.764 29.7514 134.64 30.098C134.552 30.3466 134.56 30.7789 134.572 31.395C134.577 31.6414 134.582 31.9172 134.582 32.2224V46.2538C134.582 46.5227 134.579 46.7735 134.576 47.0042C134.566 47.7177 134.559 48.2381 134.664 48.5048C134.674 48.5286 134.683 48.5527 134.693 48.5769C134.79 48.8245 134.894 49.0882 135.198 49.2639C135.671 49.5209 136.167 49.7889 136.683 49.7889H137.446Z" fill="#23417f"/>
<path fill-rule="evenodd" clip-rule="evenodd" d="M88.9814 40.746C88.6545 40.3778 88.3056 40.0076 87.9336 39.6356C88.9441 43.8365 90.7847 47.7171 93.2734 51.0965C93.2867 50.6724 93.2777 50.2382 93.2433 49.7948C91.3674 47.0574 89.9155 44.01 88.9814 40.746ZM95.8305 53.08C95.7819 53.3816 95.7246 53.679 95.6593 53.9719C101.566 60.3077 110.011 64.2735 119.387 64.2735C128.749 64.2735 137.182 60.3202 143.088 54.0018C143.028 53.7027 142.976 53.399 142.934 53.0911C137.147 59.5088 128.742 63.547 119.387 63.547C110.028 63.547 101.618 59.5042 95.8305 53.08ZM90.5328 19.2957C95.4729 8.35034 106.534 0.726471 119.387 0.726471C132.729 0.726471 144.139 8.94025 148.778 20.5565C148.851 20.1393 148.956 19.7503 149.082 19.3892C144.117 7.98189 132.69 0 119.387 0C106.5 0 95.3726 7.49174 90.1759 18.3319C90.3103 18.6304 90.4318 18.9515 90.5328 19.2957ZM91.9916 40.085C91.6303 38.8533 91.3509 37.587 91.1596 36.2922C91.7065 35.8646 92.4703 35.3631 93.3832 34.9593C94.7988 47.9869 105.901 58.1296 119.387 58.1296C132.818 58.1296 143.883 48.0712 145.373 35.1219C146.241 35.422 147.006 35.8322 147.623 36.2358C147.396 37.7947 147.042 39.3126 146.57 40.7786C144.75 43.1728 143.673 45.5429 143.161 47.8198C138.049 55.4573 129.31 60.4906 119.387 60.4906C109.572 60.4906 100.914 55.5651 95.7798 48.0654C95.3127 45.4997 94.1358 42.8058 91.9916 40.085ZM94.0336 19.1187C95.1474 18.8487 96.2058 18.6628 97.0886 18.5429C101.691 11.1043 109.956 6.14388 119.387 6.14388C128.984 6.14388 137.374 11.2797 141.925 18.9363C142.755 19.0339 143.792 19.1968 144.908 19.4445C140.222 10.1574 130.554 3.78285 119.387 3.78285C108.352 3.78285 98.7799 10.0086 94.0336 19.1187ZM149.608 41.37C149.948 40.9752 150.314 40.578 150.705 40.1787C149.676 44.1506 147.901 47.8251 145.538 51.0465C145.54 50.595 145.567 50.1328 145.623 49.6607C147.335 47.1338 148.688 44.346 149.608 41.37Z" fill="#23417f"/>
<path d="M145.081 33.8914C147.493 34.5452 149.314 36.0405 149.923 36.7064C151.75 31.1671 147.274 25.991 145.721 24.1748C148.005 25.1737 151.385 30.8039 151.659 32.62C151.933 34.4362 151.842 35.1627 150.928 38.0686C153.486 37.0697 153.669 34.1638 153.943 33.4373C154.491 30.713 153.852 26.8083 152.847 24.9921C150.471 20.9057 141.883 19.9068 140.33 19.9068C141.061 20.27 140.33 23.9932 140.33 27.4439C140.33 30.8947 143.162 32.8017 145.081 33.8914Z" fill="#23417f"/>
<path d="M163.353 27.0807C156.556 27.1533 154.065 33.407 153.669 36.5248L154.583 36.2524C154.765 35.5259 156.501 33.8006 157.78 32.8925C160.978 31.2579 162.531 31.5303 166.734 31.5303C158.877 32.166 157.323 35.3443 156.775 36.0708C163.079 36.3432 164.267 38.4318 165.089 39.2491C167.373 38.795 168.744 37.3421 170.023 36.2524C170.479 35.1627 172.124 33.2557 174.134 31.5303C171.302 28.6244 165.911 27.2623 163.353 27.0807Z" fill="#23417f"/>
<path d="M154.993 27.032C154.441 23.78 151.328 21.5555 149.84 20.8497C150.214 18.4743 151.725 17.2408 152.251 16.5866C152.783 16.1139 155.981 13.4591 157.473 11.6811C157.942 12.0283 162.153 17.4254 162.356 20.5986C162.558 23.7719 162.202 24.0568 161.62 25.7124C160.163 25.8537 158.636 26.6334 155.529 29.285C157.474 27.4005 157.891 21.0256 157.727 18.9414C157.91 21.5701 155.959 25.9082 154.993 27.032Z" fill="#23417f"/>
<path d="M93.8705 33.7097C91.4586 34.3636 89.6375 35.8589 89.0284 36.5248C87.2012 30.9855 91.6779 25.8094 93.231 23.9932C90.947 24.9921 87.5666 30.6222 87.2925 32.4384C87.0185 34.2546 87.1098 34.9811 88.0234 37.8869C85.4653 36.8881 85.2826 33.9822 85.0085 33.2557C84.4603 30.5314 85.0999 26.6266 86.1048 24.8105C88.4802 20.7241 97.0681 19.7252 98.6213 19.7252C97.8904 20.0884 98.6213 23.8116 98.6213 27.2623C98.6213 30.713 95.7891 32.62 93.8705 33.7097Z" fill="#23417f"/>
<path d="M75.5983 26.8991C82.3956 26.9717 84.8867 33.2254 85.2826 36.3432L84.369 36.0708C84.1863 35.3443 82.4504 33.6189 81.1714 32.7108C77.9737 31.0763 76.4206 31.3487 72.218 31.3487C80.075 31.9844 81.6282 35.1627 82.1763 35.8892C75.8724 36.1616 74.6847 38.2502 73.8625 39.0675C71.5785 38.6134 70.2081 37.1605 68.929 36.0708C68.4722 34.9811 66.8277 33.0741 64.8178 31.3487C67.65 28.4428 73.0402 27.0807 75.5983 26.8991Z" fill="#23417f"/>
<path d="M83.9583 26.8504C84.511 23.5984 87.6238 21.3738 89.1112 20.6681C88.7373 18.2927 87.2264 17.0592 86.7008 16.405C86.1688 15.9323 82.9708 13.2775 81.4789 11.4995C81.0097 11.8467 76.7985 17.2438 76.596 20.417C76.3935 23.5902 76.7492 23.8751 77.3311 25.5308C78.7889 25.6721 80.3156 26.4518 83.4224 29.1034C81.4772 27.2189 81.0604 20.844 81.2248 18.7598C81.0414 21.3885 82.9921 25.7266 83.9583 26.8504Z" fill="#23417f"/>
<path d="M148.77 62.6598C148.77 62.6598 148.704 62.5993 148.576 62.4817C148.512 62.4229 148.433 62.35 148.339 62.2633C148.291 62.2186 148.242 62.1767 148.185 62.1196C148.127 62.0616 148.066 61.9997 148 61.9339C147.872 61.8016 147.72 61.6561 147.571 61.4913C147.425 61.3258 147.266 61.145 147.094 60.9499C146.933 60.7458 146.756 60.5295 146.576 60.293C146.406 60.0485 146.209 59.7997 146.033 59.5161C145.66 58.9621 145.3 58.3149 144.953 57.5921C144.611 56.8662 144.311 56.0506 144.065 55.1618C143.58 53.3866 143.343 51.285 143.65 49.054C143.797 47.94 144.089 46.8011 144.518 45.6762C144.945 44.5508 145.522 43.4411 146.257 42.402C146.349 42.2726 146.441 42.1427 146.534 42.0125C146.632 41.8868 146.731 41.7605 146.831 41.6339C146.929 41.5064 147.029 41.3809 147.138 41.2605L147.297 41.0773C147.32 41.044 147.358 41.0219 147.419 41.0198C147.477 41.0155 147.547 41.0217 147.597 41.0112C147.621 41.0055 147.641 40.9958 147.655 40.9816L147.703 40.9302L147.785 40.8443L147.95 40.6725C148.06 40.5577 148.171 40.4427 148.281 40.3275C148.49 40.0893 148.755 39.8828 149.006 39.6658C150.018 38.8125 151.174 38.0994 152.458 37.6116C153.737 37.1235 155.119 36.8362 156.529 36.797C157.938 36.757 159.374 36.9566 160.742 37.4095C162.111 37.859 163.413 38.5614 164.537 39.4908C164.612 39.5511 164.677 39.5897 164.76 39.6677L165.349 40.2158C165.482 40.3326 165.597 40.488 165.722 40.6228L166.09 41.0431L166.41 41.4917C166.513 41.644 166.634 41.7849 166.718 41.949L166.992 42.4277C167.037 42.5081 167.086 42.5863 167.127 42.6684L167.24 42.9199C167.856 44.2544 168.172 45.7264 168.147 47.1908C168.109 48.6546 167.741 50.1028 167.08 51.393L166.96 51.6367C166.92 51.7177 166.867 51.7916 166.82 51.8693L166.534 52.3295C166.444 52.4868 166.33 52.6271 166.22 52.7695L165.827 53.2764C165.829 53.2761 165.802 53.3071 165.796 53.3125L165.526 53.5974C165.401 53.7223 165.297 53.8534 165.15 53.9713L164.733 54.331C164.594 54.4503 164.441 54.5424 164.296 54.6491C164.01 54.8686 163.685 55.0233 163.377 55.2034C163.215 55.2797 163.05 55.3488 162.888 55.4215C162.806 55.4569 162.725 55.4944 162.643 55.5275L162.39 55.6112C161.722 55.8581 161.018 55.9688 160.323 56.0286C160.148 56.0349 159.973 56.0413 159.799 56.0476C159.625 56.0578 159.452 56.0334 159.278 56.0276C158.93 56.0211 158.59 55.9509 158.249 55.9007C157.579 55.7514 156.917 55.5589 156.316 55.2472C156.005 55.1135 155.726 54.925 155.439 54.7533C155.292 54.6726 155.168 54.5594 155.033 54.4631L154.835 54.313L154.736 54.2381L154.687 54.2005C154.653 54.1721 154.665 54.1811 154.652 54.1695L154.63 54.1492C154.514 54.0419 154.399 53.9349 154.283 53.8284C154.167 53.7264 154.056 53.5827 153.943 53.4614L153.775 53.2713L153.631 53.072C153.539 52.9369 153.432 52.8115 153.353 52.6689C152.666 51.5621 152.342 50.2799 152.394 49.0526C152.404 48.4367 152.537 47.8389 152.715 47.2727C152.766 47.1327 152.817 46.9933 152.868 46.8548C152.923 46.7182 152.993 46.5881 153.054 46.4556L153.15 46.2583C153.184 46.194 153.224 46.1335 153.261 46.071C153.337 45.9473 153.412 45.8242 153.487 45.7018C153.57 45.5848 153.659 45.4727 153.744 45.359L153.873 45.19L153.889 45.1689C153.882 45.1765 153.918 45.1348 153.92 45.1327L153.954 45.0965L154.021 45.0242C154.115 44.9275 154.192 44.8338 154.298 44.7359C154.408 44.638 154.518 44.5406 154.628 44.4439C155.071 44.0912 155.551 43.8181 156.052 43.6185C156.555 43.4243 157.074 43.3192 157.583 43.2738C158.094 43.2308 158.593 43.2791 159.069 43.3647C159.302 43.4253 159.537 43.4701 159.756 43.5573C159.865 43.5981 159.977 43.632 160.082 43.6785C160.187 43.7276 160.29 43.776 160.392 43.8244C160.497 43.8695 160.593 43.9264 160.688 43.9846C160.784 44.042 160.878 44.0989 160.971 44.1552C161.061 44.2172 161.146 44.2836 161.232 44.3469L161.36 44.4428L161.424 44.4904L161.497 44.5566C161.567 44.6201 161.636 44.6832 161.705 44.7454C161.773 44.806 161.854 44.9028 161.926 44.9796C162.082 45.1426 162.186 45.307 162.306 45.4675C162.515 45.8028 162.694 46.1402 162.801 46.4839C163.036 47.1649 163.076 47.8226 163.015 48.38C162.96 48.9409 162.796 49.4008 162.637 49.755C162.595 49.8432 162.555 49.9264 162.518 50.0042C162.474 50.0783 162.433 50.1475 162.395 50.2115C162.32 50.341 162.252 50.4459 162.188 50.5245C162.066 50.686 162.004 50.7693 162.004 50.7693C161.787 51.0563 161.378 51.1147 161.089 50.8996C160.8 50.6848 160.742 50.2777 160.958 49.9907C160.962 49.9857 160.966 49.9808 160.97 49.9757L161.01 49.9251C161.01 49.9251 161.057 49.867 161.148 49.7546C161.197 49.7004 161.249 49.6271 161.305 49.5364C161.335 49.4916 161.366 49.4436 161.4 49.3919C161.429 49.3371 161.459 49.2784 161.491 49.2163C161.615 48.9667 161.749 48.6407 161.804 48.2335C161.865 47.8292 161.855 47.3442 161.7 46.8335C161.633 46.5745 161.506 46.3214 161.362 46.0634C161.278 45.9451 161.198 45.8041 161.104 45.7036C161.054 45.6468 161.025 45.5954 160.957 45.5301C160.891 45.4657 160.824 45.4003 160.756 45.3343L160.731 45.3098L160.718 45.2973C160.695 45.2773 160.734 45.3106 160.725 45.3038L160.675 45.2646L160.574 45.1853C160.506 45.1326 160.44 45.0765 160.37 45.0242C160.296 44.9771 160.221 44.9295 160.146 44.8815C160.071 44.8318 159.995 44.7831 159.912 44.7454C159.831 44.7041 159.749 44.6625 159.666 44.6203C159.582 44.58 159.492 44.5515 159.405 44.5155C159.232 44.4376 159.041 44.3996 158.854 44.3426C158.47 44.2641 158.064 44.2102 157.644 44.2341C157.226 44.2604 156.796 44.3329 156.377 44.4811C155.961 44.6337 155.552 44.8512 155.181 45.1287C155.095 45.1996 155.008 45.2707 154.922 45.3423C154.833 45.4177 154.74 45.5245 154.649 45.6148L154.58 45.6856L154.546 45.721C154.536 45.7304 154.563 45.7024 154.545 45.7229L154.531 45.741L154.416 45.8861C154.341 45.9835 154.26 46.079 154.186 46.1792C154.118 46.2845 154.051 46.3901 153.983 46.4964C153.95 46.55 153.913 46.6017 153.882 46.6571L153.796 46.8273C153.741 46.9418 153.677 47.0536 153.626 47.1716C153.579 47.2918 153.533 47.4124 153.486 47.5337C153.321 48.025 153.19 48.5464 153.172 49.0882C153.103 50.1671 153.364 51.3081 153.955 52.3056C154.021 52.4346 154.116 52.5467 154.195 52.6693L154.319 52.8502L154.458 53.0129L154.596 53.1769C154.641 53.232 154.686 53.2873 154.747 53.3413C154.861 53.4499 154.975 53.5589 155.089 53.6682L155.11 53.6885C155.112 53.69 155.137 53.7142 155.119 53.6969L155.164 53.7317L155.434 53.9412C155.557 54.0308 155.669 54.1379 155.803 54.2125C156.064 54.3724 156.317 54.5506 156.602 54.6759C157.15 54.9704 157.756 55.1533 158.372 55.3C158.686 55.349 158.999 55.4199 159.32 55.4289C159.48 55.4359 159.64 55.462 159.802 55.4538L160.286 55.4424C160.93 55.3903 161.583 55.2925 162.202 55.0659L162.437 54.9901L162.664 54.8925C162.815 54.8259 162.968 54.7631 163.118 54.6932C163.404 54.5265 163.708 54.3867 163.973 54.1835C164.107 54.0859 164.254 53.9994 164.378 53.893L164.753 53.5742C164.881 53.4775 164.997 53.3356 165.118 53.2137L165.389 52.9297L165.771 52.438C165.876 52.3042 165.984 52.1722 166.068 52.0238L166.34 51.5907C166.384 51.5175 166.435 51.4481 166.473 51.3717L166.586 51.1419C167.212 49.9272 167.563 48.5624 167.602 47.1797C167.629 45.7966 167.333 44.4052 166.754 43.1429L166.65 42.9038C166.612 42.8258 166.566 42.7515 166.525 42.6752L166.27 42.22C166.193 42.0635 166.079 41.9299 165.983 41.7848L165.685 41.3566L165.35 40.9656L165.182 40.7699C165.128 40.7042 165.072 40.639 165.003 40.5787L164.421 40.0248C164.375 39.979 164.289 39.9199 164.225 39.8681C163.155 38.9643 161.911 38.2771 160.598 37.831C157.97 36.9222 155.073 37.0273 152.601 37.9753C151.366 38.4537 150.245 39.1609 149.288 39.9788C149.052 40.1871 148.806 40.3763 148.594 40.6218L148.02 41.2288C148.011 41.2399 147.984 41.2649 147.988 41.2646C147.977 41.281 147.972 41.3017 147.971 41.3268C147.971 41.3773 147.991 41.4447 148 41.5014C148.011 41.5604 147.998 41.5993 147.971 41.627L147.832 41.8091C147.737 41.9284 147.65 42.0524 147.566 42.1782C147.481 42.3027 147.396 42.4269 147.31 42.5507C147.232 42.6782 147.153 42.8052 147.075 42.9318C146.451 43.9459 145.984 45.0086 145.657 46.0684C145.33 47.1281 145.131 48.1839 145.063 49.2031C144.921 51.2427 145.21 53.1135 145.729 54.6691C146.242 56.2307 146.963 57.4785 147.638 58.4308C147.801 58.6736 147.984 58.8837 148.139 59.0923C148.308 59.2904 148.467 59.476 148.614 59.6486C148.771 59.8133 148.915 59.9654 149.048 60.105C149.181 60.2415 149.303 60.352 149.411 60.4586C149.465 60.5109 149.516 60.5603 149.564 60.6065C149.613 60.653 149.67 60.6999 149.717 60.7414C149.814 60.8256 149.895 60.8963 149.961 60.9534C150.092 61.0674 150.159 61.1261 150.159 61.1261C150.591 61.5017 150.634 62.1538 150.256 62.5826C149.879 63.0114 149.223 63.0549 148.791 62.6793C148.785 62.6734 148.776 62.665 148.77 62.6598Z" fill="#23417f"/>
<path d="M90.1814 62.6598C90.1814 62.6598 90.2474 62.5993 90.3752 62.4817C90.4392 62.4229 90.5184 62.35 90.6128 62.2633C90.6604 62.2186 90.7096 62.1767 90.7668 62.1196C90.8244 62.0616 90.8858 61.9997 90.9511 61.9339C91.0792 61.8016 91.2319 61.6561 91.3809 61.4913C91.5264 61.3258 91.6854 61.145 91.8572 60.9498C92.0185 60.7458 92.1953 60.5295 92.3759 60.293C92.546 60.0485 92.7422 59.7997 92.9189 59.5161C93.292 58.9621 93.6516 58.3149 93.9989 57.5921C94.3403 56.8662 94.6407 56.0506 94.8863 55.1618C95.3715 53.3866 95.6081 51.285 95.3014 49.054C95.1543 47.94 94.8629 46.8011 94.434 45.6762C94.0061 44.5508 93.4292 43.4411 92.695 42.402C92.6029 42.2726 92.5106 42.1427 92.4177 42.0125C92.3191 41.8868 92.2201 41.7604 92.1209 41.6339C92.023 41.5064 91.9221 41.3809 91.8136 41.2605L91.6543 41.0773C91.6311 41.044 91.5939 41.0219 91.533 41.0198C91.4748 41.0155 91.4046 41.0217 91.355 41.0112C91.3304 41.0055 91.311 40.9958 91.2967 40.9816L91.2484 40.9302L91.1663 40.8443L91.0015 40.6725C90.8916 40.5577 90.781 40.4427 90.6705 40.3275C90.4616 40.0893 90.1964 39.8828 89.946 39.6658C88.9331 38.8125 87.7772 38.0994 86.4935 37.6116C85.2143 37.1235 83.8325 36.8362 82.4222 36.797C81.0132 36.757 79.5775 36.9566 78.2091 37.4095C76.8408 37.859 75.5386 38.5614 74.4147 39.4908C74.3398 39.5511 74.2749 39.5897 74.1917 39.6677L73.603 40.2158C73.4698 40.3326 73.3541 40.488 73.2291 40.6228L72.8617 41.0431L72.5412 41.4917C72.4386 41.644 72.3178 41.7849 72.2336 41.949L71.9593 42.4277C71.9147 42.5081 71.8656 42.5863 71.8248 42.6684L71.7117 42.9199C71.0951 44.2544 70.7793 45.7264 70.8047 47.1908C70.8422 48.6546 71.2105 50.1028 71.8714 51.393L71.9915 51.6367C72.0318 51.7177 72.085 51.7916 72.1311 51.8693L72.418 52.3295C72.5077 52.4868 72.6215 52.6271 72.7319 52.7695L73.1245 53.2764C73.1228 53.2761 73.1496 53.3071 73.1554 53.3125L73.4258 53.5974C73.5502 53.7223 73.6544 53.8534 73.8018 53.9713L74.2182 54.331C74.3572 54.4503 74.5103 54.5424 74.6554 54.6491C74.9413 54.8686 75.2668 55.0233 75.5751 55.2034C75.7363 55.2797 75.9011 55.3488 76.0637 55.4215C76.1455 55.4569 76.2262 55.4944 76.3086 55.5275L76.5618 55.6112C77.2292 55.8581 77.9333 55.9687 78.6285 56.0286C78.8034 56.0349 78.9781 56.0413 79.1522 56.0476C79.3266 56.0578 79.4999 56.0334 79.6735 56.0276C80.0216 56.0211 80.3615 55.9509 80.7023 55.9007C81.3727 55.7514 82.0347 55.5589 82.6354 55.2472C82.9469 55.1135 83.2259 54.925 83.5125 54.7533C83.6594 54.6726 83.7831 54.5594 83.9182 54.4631L84.1164 54.313L84.2152 54.2381L84.2646 54.2005C84.2983 54.1721 84.2864 54.1811 84.2996 54.1695L84.3214 54.1492C84.4375 54.0419 84.553 53.9349 84.6684 53.8284C84.7844 53.7264 84.8959 53.5827 85.0085 53.4614L85.1762 53.2713L85.3204 53.072C85.4127 52.9369 85.5196 52.8115 85.5981 52.6689C86.286 51.562 86.6095 50.2799 86.5576 49.0526C86.5477 48.4367 86.4145 47.8389 86.2362 47.2727C86.1851 47.1327 86.1344 46.9933 86.0839 46.8548C86.0282 46.7182 85.9591 46.5881 85.8972 46.4556L85.8019 46.2583C85.768 46.194 85.7274 46.1335 85.6906 46.071C85.6147 45.9473 85.5394 45.8242 85.4645 45.7018C85.3816 45.5848 85.2927 45.4727 85.2073 45.359L85.0783 45.19L85.0623 45.1689C85.0698 45.1765 85.034 45.1348 85.0314 45.1327L84.9976 45.0965L84.9302 45.0242C84.8365 44.9275 84.76 44.8338 84.6539 44.7359C84.5431 44.638 84.4331 44.5406 84.3236 44.4439C83.8806 44.0912 83.4002 43.8181 82.8996 43.6185C82.397 43.4243 81.8778 43.3192 81.3687 43.2738C80.8578 43.2308 80.3584 43.2791 79.883 43.3647C79.6493 43.4253 79.4141 43.4701 79.1961 43.5573C79.0864 43.5981 78.9746 43.632 78.8693 43.6785C78.765 43.7276 78.6616 43.776 78.5591 43.8244C78.4547 43.8695 78.3582 43.9264 78.2634 43.9846C78.168 44.042 78.0736 44.0989 77.9802 44.1552C77.8907 44.2172 77.8053 44.2836 77.7191 44.3469L77.5911 44.4428L77.5278 44.4904L77.4543 44.5566C77.3843 44.6201 77.3152 44.6832 77.2467 44.7454C77.1787 44.806 77.0977 44.9028 77.0261 44.9796C76.8691 45.1426 76.7659 45.307 76.6456 45.4675C76.4368 45.8028 76.2571 46.1402 76.1505 46.4839C75.9157 47.1649 75.8754 47.8226 75.9363 48.38C75.9918 48.9409 76.1553 49.4008 76.3149 49.755C76.357 49.8432 76.3964 49.9264 76.4334 50.0042C76.4774 50.0782 76.5184 50.1475 76.5565 50.2115C76.6313 50.341 76.6999 50.4459 76.7635 50.5245C76.8852 50.686 76.948 50.7693 76.948 50.7693C77.1643 51.0563 77.5736 51.1147 77.8624 50.8996C78.1512 50.6848 78.2098 50.2777 77.9935 49.9907C77.9897 49.9856 77.9857 49.9808 77.982 49.9757L77.9412 49.9251C77.9412 49.9251 77.8941 49.867 77.8031 49.7546C77.7541 49.7004 77.7028 49.6271 77.6464 49.5364C77.617 49.4916 77.5851 49.4436 77.5511 49.3919C77.5227 49.3371 77.4925 49.2784 77.4603 49.2163C77.3364 48.9667 77.2025 48.6407 77.1473 48.2335C77.0864 47.8292 77.0966 47.3442 77.2516 46.8335C77.3184 46.5745 77.4454 46.3214 77.5892 46.0634C77.6737 45.9451 77.7538 45.8041 77.8475 45.7036C77.8978 45.6468 77.9265 45.5954 77.9943 45.5301C78.0606 45.4657 78.1276 45.4003 78.1955 45.3343L78.221 45.3098L78.2338 45.2973C78.2562 45.2773 78.2178 45.3106 78.2262 45.3038L78.2764 45.2646L78.3772 45.1853C78.4451 45.1326 78.5116 45.0765 78.5819 45.0242C78.6559 44.9771 78.7306 44.9295 78.8059 44.8815C78.8804 44.8318 78.9565 44.7831 79.0397 44.7454C79.121 44.7041 79.2028 44.6625 79.2857 44.6203C79.3695 44.58 79.4592 44.5515 79.5467 44.5155C79.72 44.4376 79.9101 44.3996 80.0979 44.3426C80.4817 44.2641 80.8876 44.2102 81.3073 44.2341C81.7252 44.2604 82.1551 44.3329 82.5746 44.4811C82.9909 44.6337 83.3992 44.8512 83.771 45.1287C83.8569 45.1996 83.9432 45.2707 84.03 45.3423C84.1183 45.4177 84.2111 45.5245 84.3023 45.6148L84.3711 45.6856L84.4056 45.721C84.4151 45.7304 84.3883 45.7024 84.4063 45.7229L84.4205 45.741L84.5351 45.8861C84.611 45.9835 84.6911 46.079 84.7658 46.1792C84.8331 46.2844 84.9006 46.3901 84.9685 46.4964C85.0018 46.55 85.0389 46.6017 85.0694 46.6571L85.1551 46.8273C85.2109 46.9418 85.2748 47.0536 85.3257 47.1716C85.3723 47.2918 85.4188 47.4124 85.4658 47.5337C85.6308 48.025 85.7614 48.5464 85.7799 49.0882C85.8487 50.1671 85.5871 51.3081 84.9966 52.3056C84.9302 52.4346 84.8357 52.5467 84.7565 52.6693L84.6323 52.8502L84.4937 53.0129L84.3554 53.1769C84.3102 53.232 84.2652 53.2873 84.2043 53.3413C84.0908 53.4499 83.977 53.5589 83.8628 53.6682L83.8414 53.6885C83.8396 53.69 83.8148 53.7142 83.8322 53.6969L83.7872 53.7317L83.5172 53.9412C83.3943 54.0308 83.283 54.1379 83.1486 54.2125C82.8875 54.3724 82.6343 54.5506 82.3495 54.6759C81.802 54.9704 81.1952 55.1533 80.5792 55.3C80.2656 55.349 79.9529 55.4199 79.6314 55.4289C79.4713 55.4359 79.3111 55.4619 79.1499 55.4538L78.6653 55.4424C78.0217 55.3903 77.3685 55.2925 76.7495 55.0659L76.5144 54.9901L76.2873 54.8925C76.1364 54.8259 75.9834 54.7631 75.8333 54.6932C75.5477 54.5265 75.2437 54.3867 74.9787 54.1835C74.8447 54.0859 74.698 53.9994 74.5737 53.893L74.199 53.5742C74.0708 53.4775 73.9549 53.3356 73.8335 53.2137L73.5623 52.9297L73.1802 52.438C73.0754 52.3042 72.9672 52.1722 72.8831 52.0238L72.6116 51.5907C72.5679 51.5175 72.517 51.4481 72.479 51.3717L72.3656 51.1419C71.7398 49.9272 71.389 48.5624 71.3496 47.1797C71.3226 45.7966 71.6181 44.4052 72.1976 43.1429L72.3016 42.9038C72.3394 42.8258 72.3855 42.7515 72.4269 42.6752L72.6814 42.22C72.7589 42.0635 72.873 41.9299 72.9683 41.7848L73.2668 41.3566L73.6019 40.9656L73.7691 40.7699C73.8235 40.7042 73.8799 40.639 73.9481 40.5787L74.531 40.0248C74.5769 39.979 74.663 39.9199 74.7269 39.8681C75.7964 38.9643 77.0403 38.2771 78.3532 37.831C80.9815 36.9222 83.8785 37.0273 86.3507 37.9753C87.5856 38.4537 88.7069 39.1609 89.6631 39.9788C89.9 40.1871 90.1453 40.3763 90.3578 40.6218L90.9312 41.2288C90.941 41.2399 90.9671 41.2649 90.9634 41.2646C90.9742 41.281 90.9797 41.3017 90.9802 41.3268C90.9806 41.3773 90.9601 41.4447 90.9519 41.5014C90.941 41.5604 90.9535 41.5993 90.9803 41.627L91.1193 41.8091C91.2141 41.9284 91.3014 42.0524 91.3854 42.1782C91.4708 42.3027 91.5561 42.4269 91.6411 42.5507C91.72 42.6782 91.7986 42.8052 91.8769 42.9318C92.5004 43.9459 92.9675 45.0086 93.2941 46.0684C93.6217 47.1281 93.8203 48.1839 93.8882 49.2031C94.0304 51.2427 93.7411 53.1135 93.2225 54.6691C92.7093 56.2307 91.9889 57.4785 91.3132 58.4308C91.1502 58.6736 90.9678 58.8837 90.8125 59.0923C90.6434 59.2904 90.485 59.476 90.3375 59.6486C90.181 59.8133 90.0364 59.9654 89.9037 60.105C89.7707 60.2415 89.6483 60.352 89.5403 60.4586C89.4862 60.5109 89.4352 60.5603 89.3874 60.6065C89.3388 60.653 89.2814 60.6999 89.2346 60.7414C89.1377 60.8256 89.0565 60.8963 88.991 60.9534C88.86 61.0674 88.7925 61.1261 88.7925 61.1261C88.3609 61.5017 88.3173 62.1538 88.6951 62.5826C89.073 63.0114 89.7289 63.0549 90.1605 62.6793C90.1662 62.6734 90.1756 62.665 90.1814 62.6598Z" fill="#23417f"/>
<path d="M194.34 49.8053C194.34 49.8053 194.357 49.8171 194.39 49.8401C194.426 49.8655 194.465 49.8896 194.555 49.9577C194.723 50.0834 194.934 50.2579 195.18 50.5436C195.42 50.8264 195.68 51.2159 195.855 51.7264C196.028 52.2338 196.112 52.8652 195.987 53.5408C195.923 53.8769 195.81 54.2219 195.637 54.5534C195.55 54.7185 195.452 54.8827 195.337 55.0383L195.286 55.1078L195.167 55.2562C195.108 55.3271 195.035 55.411 194.968 55.4829C194.433 56.0535 193.71 56.5339 192.859 56.803C192.011 57.0724 191.033 57.1323 190.07 56.8806C189.586 56.7555 189.125 56.5549 188.675 56.2642C188.49 56.1398 188.257 55.9724 188.067 55.8029C187.872 55.6301 187.683 55.4465 187.513 55.2421C186.822 54.4365 186.363 53.3709 186.311 52.2388C186.246 51.1094 186.599 49.9343 187.3 48.9837C187.393 48.8523 187.48 48.7577 187.566 48.6386C187.663 48.5261 187.756 48.405 187.858 48.2989C188.056 48.0777 188.275 47.8749 188.502 47.678C188.963 47.2941 189.474 46.9558 190.031 46.6943C191.139 46.163 192.41 45.9025 193.69 45.9844C196.27 46.1103 198.724 47.8234 199.915 50.2232C200.509 51.4236 200.784 52.7934 200.677 54.1461C200.577 55.4985 200.103 56.8248 199.338 57.9496L199.194 58.1604L199.041 58.3632C198.943 58.4942 198.843 58.6254 198.728 58.7566C198.51 59.0229 198.281 59.2686 198.04 59.5068C197.56 59.9829 197.035 60.4128 196.476 60.7906C195.357 61.5467 194.105 62.0924 192.807 62.4096C190.21 63.0512 187.434 62.7436 185.144 61.6056C184.567 61.3223 184.035 60.9978 183.526 60.6069C183.026 60.2263 182.573 59.8057 182.147 59.374C181.298 58.5075 180.559 57.5895 179.871 56.68C178.502 54.8553 177.328 53.0615 176.211 51.4385C175.099 49.8125 174.053 48.3471 173.034 47.1364C172.02 45.9246 171.037 44.9619 170.125 44.3466C169.218 43.7179 168.404 43.4615 167.851 43.386C167.712 43.3693 167.589 43.354 167.483 43.3509C167.377 43.3523 167.288 43.3379 167.215 43.321C167.069 43.2836 166.985 43.208 166.985 43.2082L166.959 43.1844C166.811 43.0521 166.8 42.8261 166.933 42.6797C166.936 42.6764 166.94 42.6723 166.943 42.6692C166.943 42.6692 167.024 42.5869 167.198 42.5361C167.373 42.4869 167.636 42.5199 167.972 42.5579C168.643 42.6474 169.607 42.9634 170.602 43.6561C171.605 44.3367 172.643 45.3499 173.681 46.6047C174.719 47.8607 175.767 49.3545 176.869 50.9975C177.974 52.6384 179.127 54.4386 180.456 56.2486C181.123 57.1504 181.838 58.0548 182.646 58.8951C183.05 59.3138 183.477 59.7181 183.94 60.0778C184.389 60.4336 184.908 60.7537 185.441 61.019C187.58 62.1009 190.199 62.4134 192.664 61.8219C193.895 61.5297 195.086 61.0206 196.151 60.3113C196.683 59.9571 197.183 59.5532 197.641 59.1056C197.87 58.8828 198.091 58.6465 198.292 58.4056C198.396 58.2895 198.496 58.1597 198.596 58.0277L198.742 57.8377L198.878 57.6416C199.599 56.5952 200.05 55.3644 200.149 54.1056C200.255 52.847 200.006 51.5698 199.457 50.4463C199.178 49.887 198.835 49.3605 198.426 48.8927C198.019 48.4263 197.547 48.0058 197.052 47.6573C196.037 46.9364 194.858 46.5319 193.659 46.4526C191.26 46.2791 188.902 47.4279 187.671 49.2392C187.067 50.1402 186.806 51.2056 186.908 52.1968C186.999 53.191 187.442 54.0933 188.065 54.7585C188.219 54.9277 188.389 55.0776 188.562 55.2186C188.742 55.3623 188.903 55.4684 189.116 55.5998C189.472 55.8061 189.877 55.9664 190.273 56.047C191.071 56.2183 191.87 56.132 192.543 55.8838C193.22 55.6355 193.771 55.2277 194.165 54.768C194.569 54.3018 194.774 53.8185 194.839 53.3524C194.902 52.8897 194.825 52.4731 194.695 52.143C194.564 51.8112 194.381 51.5641 194.214 51.3853C194.049 51.2089 193.886 51.0866 193.796 51.0257C193.758 50.9974 193.693 50.9591 193.662 50.939C193.627 50.9175 193.61 50.9066 193.61 50.9066C193.3 50.7131 193.206 50.3061 193.401 49.9978C193.596 49.6892 194.005 49.5961 194.315 49.7896C194.322 49.7938 194.332 49.8001 194.34 49.8053Z" fill="#23417f"/>
<path fill-rule="evenodd" clip-rule="evenodd" d="M192.997 46.0801C195.992 44.4233 199.771 45.493 201.438 48.4698C203.509 52.1685 202.172 56.8357 198.45 58.8946C198.362 58.9433 198.251 58.9118 198.202 58.8242C198.152 58.7366 198.184 58.626 198.272 58.5772C201.817 56.6159 203.091 52.1699 201.118 48.6464C199.55 45.8449 195.993 44.8383 193.175 46.3975C193.087 46.4463 192.976 46.4148 192.926 46.3271C192.877 46.2395 192.909 46.1289 192.997 46.0801Z" fill="#23417f"/>
<path d="M183.77 60.1478C183.77 60.1478 183.921 60.09 184.214 59.9898C184.505 59.8937 184.932 59.7566 185.479 59.5981C186.027 59.4447 186.694 59.2602 187.467 59.0889C187.854 59.0043 188.265 58.9064 188.702 58.8299C188.921 58.7885 189.145 58.7462 189.374 58.7027C189.604 58.6631 189.841 58.6311 190.082 58.5937C190.323 58.5578 190.569 58.5212 190.82 58.4841C191.072 58.4567 191.329 58.4288 191.591 58.4004C191.852 58.3751 192.117 58.3363 192.388 58.3206C192.66 58.3035 192.935 58.2858 193.214 58.2681C194.329 58.1981 195.511 58.198 196.73 58.2585C197.035 58.2632 197.341 58.2948 197.65 58.3253C197.958 58.3547 198.269 58.3846 198.582 58.4143C198.896 58.4351 199.206 58.5013 199.52 58.5464C199.834 58.5961 200.15 58.6461 200.466 58.6963C201.096 58.8146 201.723 58.975 202.357 59.1137C202.669 59.1864 202.982 59.2705 203.295 59.3487L204.234 59.5705C206.747 60.1361 209.306 60.5178 211.716 60.6501C212.921 60.7138 214.088 60.7123 215.19 60.6738C216.293 60.6381 217.332 60.5577 218.283 60.4345C219.233 60.3103 220.093 60.1333 220.84 59.9312C221.586 59.7282 222.212 59.4821 222.701 59.238C223.189 58.9926 223.541 58.7505 223.756 58.5619C223.871 58.4743 223.939 58.3891 223.995 58.3405C224.048 58.289 224.075 58.2624 224.075 58.2624L224.091 58.2469C224.173 58.1673 224.304 58.1684 224.384 58.2496C224.462 58.3286 224.462 58.4545 224.387 58.5346C224.387 58.5346 224.358 58.5657 224.302 58.6258C224.242 58.6826 224.166 58.7825 224.044 58.8839C223.812 59.1028 223.437 59.3808 222.925 59.6626C222.413 59.9437 221.757 60.2092 220.987 60.4386C220.218 60.6707 219.331 60.8522 218.359 60.9881C217.386 61.1258 216.326 61.2109 215.205 61.2264C214.083 61.2417 212.903 61.1894 211.687 61.0944C210.471 60.9992 209.218 60.8668 207.953 60.6782C206.688 60.49 205.411 60.2487 204.145 59.9568L203.197 59.729C202.883 59.6497 202.573 59.5648 202.258 59.4902C201.634 59.3515 201.017 59.1906 200.396 59.0717C200.084 59.0211 199.773 58.9707 199.463 58.9204C199.153 58.8749 198.848 58.8082 198.538 58.7867C198.229 58.7561 197.923 58.7257 197.618 58.6953C197.314 58.6639 197.012 58.6315 196.71 58.6259C195.506 58.5617 194.338 58.5572 193.234 58.6226C192.958 58.639 192.686 58.6554 192.418 58.6713C192.15 58.6858 191.887 58.7233 191.628 58.7474C191.369 58.7746 191.115 58.8012 190.865 58.8274C190.617 58.8635 190.373 58.8988 190.134 58.9333C189.895 58.9695 189.661 59.0003 189.433 59.0388C189.206 59.0808 188.984 59.1219 188.768 59.1621C188.334 59.2368 187.927 59.3295 187.545 59.4174C186.781 59.5928 186.122 59.7755 185.584 59.9419C185.047 60.1067 184.632 60.2559 184.351 60.3616C184.074 60.4676 183.926 60.5303 183.926 60.5303C183.82 60.5749 183.698 60.526 183.653 60.421C183.608 60.3162 183.658 60.1948 183.763 60.1501C183.765 60.1494 183.767 60.1486 183.769 60.1476L183.77 60.1478Z" fill="#23417f"/>
<path d="M223.879 58.4892C223.879 58.4892 223.92 58.4461 223.997 58.3652C224.017 58.3448 224.038 58.3223 224.061 58.2972C224.079 58.2729 224.099 58.2465 224.12 58.2177C224.163 58.1612 224.213 58.0958 224.259 58.0092C224.364 57.846 224.451 57.623 224.508 57.356C224.564 57.0896 224.586 56.7732 224.524 56.4365C224.468 56.1001 224.332 55.7452 224.114 55.4175C224.007 55.2514 223.868 55.1021 223.721 54.9573C223.563 54.8167 223.395 54.7019 223.202 54.6096C222.815 54.4327 222.355 54.3736 221.917 54.473C221.481 54.5771 221.075 54.8232 220.797 55.1856C220.528 55.5316 220.428 56.0079 220.518 56.4301C220.607 56.854 220.867 57.2316 221.24 57.4312C221.575 57.6073 222.02 57.6248 222.343 57.4544C222.503 57.3703 222.653 57.2559 222.751 57.1255C222.777 57.0877 222.814 57.048 222.831 57.0123L222.877 56.9099C222.896 56.879 222.903 56.8385 222.913 56.8003C222.921 56.762 222.934 56.7249 222.939 56.6867C222.967 56.3834 222.897 56.0824 222.718 55.8812L222.687 55.8431C222.689 55.8427 222.663 55.824 222.653 55.8154C222.625 55.7946 222.598 55.774 222.57 55.7538C222.516 55.7193 222.466 55.7076 222.417 55.6851C222.362 55.6764 222.311 55.659 222.26 55.658C222.209 55.6612 222.161 55.6571 222.116 55.6645C221.932 55.6887 221.824 55.7913 221.76 55.8485C221.704 55.9222 221.68 55.9595 221.68 55.9595L221.671 55.9723C221.608 56.0687 221.479 56.0962 221.382 56.0337C221.285 55.9713 221.257 55.8426 221.32 55.7462C221.336 55.7213 221.358 55.7006 221.381 55.6854C221.381 55.6854 221.442 55.6454 221.557 55.5704C221.681 55.5181 221.861 55.4276 222.102 55.4363C222.161 55.4351 222.223 55.4472 222.287 55.4537C222.35 55.4659 222.414 55.4885 222.481 55.5073C222.545 55.5386 222.618 55.5741 222.678 55.6121C222.705 55.6326 222.732 55.6532 222.76 55.6744C222.778 55.6876 222.783 55.6878 222.81 55.7117L222.851 55.7539C223.079 55.9594 223.281 56.3185 223.221 56.7258C223.215 56.7756 223.199 56.8243 223.187 56.8742C223.174 56.9239 223.164 56.9742 223.136 57.0242C223.111 57.0737 223.086 57.1239 223.061 57.1747C223.034 57.2223 223.004 57.2529 222.975 57.2934C222.841 57.4683 222.665 57.5977 222.463 57.7022C222.362 57.7492 222.25 57.7823 222.14 57.8136C222.083 57.8214 222.025 57.829 221.967 57.8368L221.88 57.8479L221.791 57.8434L221.613 57.8326C221.554 57.8244 221.497 57.8055 221.438 57.7918C221.32 57.7716 221.205 57.7068 221.091 57.6507C220.679 57.418 220.372 56.9647 220.283 56.4757C220.191 55.9841 220.31 55.4518 220.632 55.0495C220.94 54.6614 221.398 54.392 221.875 54.2881C222.355 54.1812 222.858 54.2442 223.282 54.4386C223.713 54.6402 224.034 54.9628 224.272 55.3105C224.514 55.657 224.664 56.0343 224.743 56.3946C224.819 56.7563 224.828 57.1018 224.784 57.4032C224.74 57.7041 224.658 57.9627 224.562 58.1631C224.521 58.2653 224.468 58.3539 224.42 58.4313C224.397 58.4697 224.375 58.5054 224.355 58.538C224.335 58.5656 224.317 58.5909 224.3 58.6133C224.235 58.7039 224.2 58.7519 224.2 58.7519C224.133 58.8447 224.003 58.8662 223.909 58.7995C223.816 58.7331 223.795 58.6037 223.862 58.5109C223.867 58.5035 223.874 58.4957 223.879 58.4892Z" fill="#23417f"/>
<path fill-rule="evenodd" clip-rule="evenodd" d="M199.444 58.0534L199.445 58.0531L199.446 58.0522L199.451 58.0481C199.456 58.0444 199.464 58.0388 199.474 58.0315C199.494 58.0169 199.524 57.9955 199.563 57.9683C199.642 57.9141 199.759 57.8372 199.908 57.7477C200.207 57.5685 200.637 57.3389 201.161 57.1373C202.21 56.7339 203.629 56.4455 205.125 56.8915C206.453 57.2872 207.741 58.0873 209.014 58.8777C209.186 58.9848 209.358 59.0917 209.53 59.1974C210.962 60.078 212.383 60.8773 213.794 60.9438C213.845 60.9461 213.887 60.9074 213.89 60.8574C213.892 60.8073 213.853 60.7647 213.803 60.7623C212.446 60.6984 211.065 59.9272 209.626 59.043C209.455 58.9379 209.284 58.8312 209.111 58.7241C207.841 57.9353 206.53 57.1208 205.177 56.7175C203.629 56.2559 202.166 56.556 201.095 56.968C200.559 57.1741 200.12 57.4088 199.814 57.5922C199.661 57.6839 199.541 57.7628 199.459 57.819C199.418 57.8471 199.387 57.8695 199.366 57.885C199.355 57.8928 199.347 57.8988 199.341 57.9029L199.335 57.9077L199.333 57.909L199.333 57.9094L199.333 57.9095C199.333 57.9095 199.333 57.9096 199.388 57.9815L199.333 57.9095C199.293 57.9401 199.285 57.9972 199.316 58.0369C199.347 58.0766 199.404 58.084 199.444 58.0534Z" fill="#23417f"/>
<path d="M206.486 52.0389C206.644 50.7103 205.266 49.3825 204.348 50.8664C203.429 52.3503 203.923 53.8406 202.836 54.7754C202.575 54.9996 206.329 53.3676 206.486 52.0389ZM204.559 51.5225C204.601 50.8146 205.142 50.3663 205.108 50.4924C205.033 50.7651 204.516 52.2302 204.559 51.5225Z" fill="#23417f"/>
<path d="M203.038 55.4144C204.448 55.1373 205.327 56.4413 207.069 56.6337C208.811 56.826 208.605 54.9299 207.454 54.2361C206.303 53.5427 202.7 55.4806 203.038 55.4144ZM207.833 56.2676C207.954 56.3183 207.266 56.4666 206.678 56.0644C206.091 55.6627 207.571 56.1584 207.833 56.2676Z" fill="#23417f"/>
<path d="M44.612 49.8053C44.612 49.8053 44.595 49.8171 44.5615 49.8401C44.5256 49.8655 44.4862 49.8896 44.3965 49.9577C44.2285 50.0834 44.0175 50.2579 43.7719 50.5436C43.532 50.8264 43.2716 51.2159 43.0968 51.7264C42.9232 52.2338 42.8393 52.8652 42.9643 53.5408C43.0284 53.8769 43.1415 54.2219 43.3146 54.5534C43.4013 54.7185 43.4995 54.8827 43.6149 55.0383L43.6655 55.1078L43.7842 55.2562C43.844 55.3271 43.9164 55.411 43.9834 55.4829C44.5187 56.0535 45.2418 56.5339 46.0928 56.803C46.9403 57.0724 47.9186 57.1323 48.8814 56.8806C49.3654 56.7555 49.8263 56.5549 50.2764 56.2642C50.4612 56.1398 50.6941 55.9724 50.8845 55.8029C51.0793 55.6301 51.2688 55.4465 51.4388 55.2421C52.1296 54.4365 52.5886 53.3709 52.6408 52.2388C52.7051 51.1094 52.3526 49.9343 51.6512 48.9837C51.5587 48.8523 51.4715 48.7577 51.3857 48.6386C51.2887 48.5261 51.1956 48.405 51.0933 48.2989C50.8957 48.0777 50.6763 47.8749 50.4497 47.678C49.9887 47.2941 49.4773 46.9558 48.9207 46.6943C47.8124 46.163 46.5412 45.9025 45.2619 45.9844C42.6813 46.1103 40.2274 47.8234 39.037 50.2232C38.4424 51.4236 38.1678 52.7934 38.2749 54.1461C38.3745 55.4985 38.8488 56.8248 39.6138 57.9496L39.7578 58.1604L39.911 58.3632C40.009 58.4942 40.1089 58.6254 40.2231 58.7566C40.4419 59.0229 40.6703 59.2686 40.9111 59.5068C41.3913 59.9829 41.9166 60.4128 42.4757 60.7906C43.5942 61.5467 44.847 62.0924 46.1446 62.4096C48.7413 63.0512 51.5174 62.7436 53.8071 61.6056C54.3842 61.3223 54.9169 60.9978 55.4255 60.6069C55.9259 60.2263 56.3783 59.8057 56.8041 59.374C57.6538 58.5075 58.3928 57.5895 59.0806 56.68C60.45 54.8553 61.6234 53.0615 62.7407 51.4385C63.8525 49.8125 64.8989 48.3471 65.9174 47.1364C66.9312 45.9246 67.9148 44.9619 68.8268 44.3466C69.7335 43.7179 70.5477 43.4615 71.1005 43.386C71.2393 43.3693 71.3623 43.354 71.4684 43.3509C71.5749 43.3523 71.664 43.3379 71.7368 43.321C71.8822 43.2836 71.9663 43.208 71.9662 43.2082L71.9929 43.1844C72.1402 43.0521 72.1515 42.8261 72.0184 42.6797C72.0156 42.6764 72.0115 42.6723 72.0087 42.6692C72.0087 42.6692 71.9276 42.5869 71.7531 42.5361C71.5785 42.4869 71.3155 42.5199 70.9792 42.5579C70.3081 42.6474 69.345 42.9634 68.3498 43.6561C67.3463 44.3367 66.3082 45.3499 65.271 46.6047C64.2325 47.8607 63.1847 49.3545 62.0822 50.9975C60.9773 52.6384 59.825 54.4386 58.4952 56.2486C57.8281 57.1504 57.1139 58.0548 56.306 58.8951C55.9016 59.3138 55.4746 59.7181 55.0114 60.0778C54.5622 60.4336 54.0433 60.7537 53.5108 61.019C51.3712 62.1009 48.7529 62.4134 46.2877 61.8219C45.0564 61.5297 43.8652 61.0206 42.8009 60.3113C42.2688 59.9571 41.7686 59.5532 41.3107 59.1056C41.0821 58.8828 40.8603 58.6465 40.6594 58.4056C40.5559 58.2895 40.4553 58.1597 40.3553 58.0277L40.2094 57.8377L40.0738 57.6416C39.3525 56.5952 38.9012 55.3644 38.8028 54.1056C38.6969 52.847 38.9459 51.5698 39.4948 50.4463C39.7732 49.887 40.1167 49.3605 40.5259 48.8927C40.9328 48.4263 41.4048 48.0058 41.8997 47.6573C42.9148 46.9364 44.0932 46.5319 45.2922 46.4526C47.6912 46.2791 50.0495 47.4279 51.2808 49.2392C51.8844 50.1402 52.1451 51.2056 52.0438 52.1968C51.9524 53.191 51.51 54.0933 50.8863 54.7585C50.7328 54.9277 50.5622 55.0776 50.3891 55.2186C50.2099 55.3623 50.0486 55.4684 49.8352 55.5998C49.4794 55.8061 49.0744 55.9664 48.6787 56.047C47.8805 56.2183 47.0818 56.132 46.4083 55.8838C45.7312 55.6355 45.1804 55.2277 44.7862 54.768C44.3824 54.3018 44.1771 53.8185 44.1123 53.3524C44.0495 52.8897 44.1265 52.4731 44.2562 52.143C44.3875 51.8112 44.5705 51.5641 44.7372 51.3853C44.9021 51.2089 45.0655 51.0866 45.1559 51.0257C45.1937 50.9974 45.2582 50.9591 45.2896 50.939C45.3242 50.9175 45.3415 50.9066 45.3415 50.9066C45.6519 50.7131 45.7456 50.3061 45.5507 49.9978C45.356 49.6892 44.9465 49.5961 44.6363 49.7896C44.6291 49.7938 44.6195 49.8001 44.612 49.8053Z" fill="#23417f"/>
<path fill-rule="evenodd" clip-rule="evenodd" d="M45.9543 46.0801C42.9596 44.4233 39.1806 45.493 37.5138 48.4698C35.4427 52.1685 36.78 56.8357 40.5015 58.8946C40.5896 58.9433 40.7009 58.9118 40.75 58.8242C40.7991 58.7366 40.7674 58.626 40.6792 58.5772C37.1341 56.6159 35.8601 52.1699 37.8331 48.6464C39.4018 45.8449 42.9582 44.8383 45.7765 46.3975C45.8647 46.4463 45.976 46.4148 46.0251 46.3271C46.0741 46.2395 46.0424 46.1289 45.9543 46.0801Z" fill="#23417f"/>
<path d="M55.1819 60.1478C55.1819 60.1478 55.0302 60.09 54.7371 59.9898C54.4464 59.8937 54.0195 59.7566 53.4724 59.5981C52.9242 59.4447 52.2579 59.2602 51.4842 59.0889C51.0972 59.0043 50.687 58.9064 50.2491 58.8299C50.0307 58.7885 49.8068 58.7462 49.5775 58.7027C49.3475 58.6631 49.1109 58.6311 48.8699 58.5937C48.6288 58.5578 48.3826 58.5212 48.1316 58.4841C47.8794 58.4567 47.6224 58.4288 47.3609 58.4004C47.0992 58.3751 46.8344 58.3363 46.5631 58.3206C46.292 58.3035 46.017 58.2858 45.738 58.2681C44.6222 58.1981 43.4409 58.198 42.2219 58.2585C41.9165 58.2632 41.6103 58.2948 41.3017 58.3253C40.9932 58.3547 40.6823 58.3846 40.3696 58.4143C40.0557 58.4351 39.7456 58.5013 39.4312 58.5464C39.1173 58.5961 38.802 58.6461 38.4854 58.6963C37.8555 58.8146 37.2286 58.975 36.5946 59.1137C36.2827 59.1864 35.9696 59.2705 35.6564 59.3487L34.7176 59.5705C32.2043 60.1361 29.646 60.5178 27.2354 60.6501C26.0301 60.7138 24.8635 60.7123 23.7613 60.6738C22.659 60.6381 21.6198 60.5577 20.669 60.4345C19.7183 60.3103 18.8581 60.1333 18.112 59.9312C17.3658 59.7282 16.7398 59.4821 16.2509 59.238C15.7628 58.9926 15.4102 58.7505 15.1951 58.5619C15.0804 58.4743 15.0125 58.3891 14.9567 58.3405C14.9039 58.289 14.8766 58.2624 14.8766 58.2624L14.8606 58.2469C14.7789 58.1673 14.6478 58.1684 14.5677 58.2496C14.4896 58.3286 14.4891 58.4545 14.5642 58.5346C14.5642 58.5346 14.5934 58.5657 14.6499 58.6258C14.7092 58.6826 14.7853 58.7825 14.9073 58.8839C15.1394 59.1028 15.5142 59.3808 16.0261 59.6626C16.5387 59.9437 17.1948 60.2092 17.9644 60.4386C18.7338 60.6707 19.6206 60.8522 20.5929 60.9881C21.5653 61.1258 22.6258 61.2109 23.747 61.2264C24.8683 61.2417 26.0488 61.1894 27.2644 61.0944C28.4801 60.9992 29.7331 60.8668 30.9982 60.6782C32.2635 60.49 33.5407 60.2487 34.8066 59.9568L35.7546 59.729C36.0683 59.6497 36.3783 59.5648 36.6935 59.4902C37.3177 59.3515 37.9351 59.1906 38.5558 59.0717C38.8679 59.0211 39.1789 58.9707 39.4882 58.9204C39.7982 58.8749 40.1039 58.8082 40.4136 58.7867C40.7223 58.7561 41.029 58.7257 41.3334 58.6953C41.638 58.6639 41.9401 58.6315 42.2417 58.6259C43.4454 58.5617 44.6131 58.5572 45.7172 58.6226C45.9932 58.639 46.2654 58.6554 46.5337 58.6713C46.8019 58.6858 47.0643 58.7233 47.3234 58.7474C47.5821 58.7746 47.8366 58.8012 48.0864 58.8274C48.335 58.8635 48.5789 58.8988 48.8176 58.9333C49.0562 58.9695 49.2906 59.0003 49.5184 59.0388C49.7455 59.0808 49.9674 59.1219 50.1836 59.1621C50.6175 59.2368 51.0245 59.3295 51.4065 59.4174C52.1709 59.5928 52.83 59.7755 53.3671 59.9419C53.9049 60.1067 54.32 60.2559 54.6006 60.3616C54.8774 60.4676 55.026 60.5303 55.0258 60.5303C55.1314 60.5749 55.2534 60.526 55.2983 60.421C55.3432 60.3162 55.294 60.1948 55.1886 60.1501C55.1866 60.1494 55.1846 60.1486 55.1825 60.1476L55.1819 60.1478Z" fill="#23417f"/>
<path d="M15.0721 58.4892C15.0721 58.4892 15.0311 58.4461 14.9542 58.3652C14.9349 58.3448 14.9138 58.3223 14.8901 58.2972C14.8723 58.2729 14.8527 58.2465 14.8316 58.2177C14.7888 58.1612 14.7383 58.0958 14.6924 58.0092C14.588 57.846 14.5007 57.623 14.4434 57.356C14.3875 57.0896 14.366 56.7732 14.4272 56.4365C14.4839 56.1001 14.6191 55.7452 14.838 55.4175C14.9446 55.2514 15.0834 55.1021 15.2308 54.9573C15.3888 54.8167 15.5567 54.7019 15.75 54.6096C16.137 54.4327 16.5968 54.3736 17.0348 54.473C17.4701 54.5771 17.8765 54.8232 18.1548 55.1856C18.4236 55.5316 18.524 56.0079 18.4335 56.4301C18.3443 56.854 18.0843 57.2316 17.7119 57.4312C17.3771 57.6073 16.932 57.6248 16.6086 57.4544C16.4485 57.3703 16.2986 57.2559 16.2007 57.1255C16.1743 57.0877 16.1379 57.048 16.1205 57.0123L16.0746 56.9099C16.0554 56.879 16.0485 56.8385 16.039 56.8003C16.0308 56.762 16.0173 56.7249 16.0128 56.6867C15.9844 56.3834 16.0541 56.0824 16.2332 55.8812L16.2648 55.8431C16.2627 55.8427 16.2881 55.824 16.2982 55.8154C16.3263 55.7946 16.3539 55.774 16.3812 55.7538C16.4353 55.7193 16.4854 55.7076 16.5342 55.6851C16.5897 55.6764 16.6409 55.659 16.6918 55.658C16.743 55.6612 16.791 55.6571 16.8356 55.6645C17.0191 55.6887 17.1275 55.7913 17.1917 55.8485C17.2476 55.9222 17.2719 55.9595 17.2719 55.9595L17.2803 55.9723C17.3431 56.0687 17.4726 56.0962 17.5696 56.0337C17.6666 55.9713 17.6942 55.8426 17.6314 55.7462C17.6152 55.7213 17.5937 55.7006 17.5706 55.6854C17.5706 55.6854 17.5091 55.6454 17.3942 55.5704C17.2702 55.5181 17.0909 55.4276 16.8496 55.4363C16.7908 55.4351 16.7288 55.4472 16.6649 55.4537C16.6019 55.4659 16.5376 55.4885 16.4707 55.5073C16.407 55.5386 16.3332 55.5741 16.2738 55.6121C16.2467 55.6326 16.2191 55.6532 16.1912 55.6744C16.1739 55.6876 16.1689 55.6878 16.1412 55.7117L16.101 55.7539C15.8721 55.9594 15.6708 56.3185 15.7304 56.7258C15.7367 56.7756 15.753 56.8243 15.7647 56.8742C15.7779 56.9239 15.7879 56.9742 15.8158 57.0242C15.8405 57.0737 15.8655 57.1239 15.8906 57.1747C15.9171 57.2223 15.9474 57.2529 15.9761 57.2934C16.1111 57.4683 16.2865 57.5977 16.4882 57.7022C16.5897 57.7492 16.7011 57.7823 16.8115 57.8136C16.8688 57.8214 16.9265 57.829 16.9847 57.8368L17.0719 57.8479L17.1602 57.8434L17.3383 57.8326C17.3973 57.8244 17.455 57.8055 17.5136 57.7918C17.6314 57.7716 17.7463 57.7068 17.8609 57.6507C18.2723 57.418 18.5796 56.9647 18.6687 56.4757C18.7607 55.9841 18.6419 55.4518 18.3193 55.0495C18.0111 54.6614 17.5536 54.392 17.0764 54.2881C16.5967 54.1812 16.0939 54.2442 15.6699 54.4386C15.2383 54.6402 14.9179 54.9628 14.6791 55.3105C14.438 55.657 14.2872 56.0343 14.2083 56.3946C14.1323 56.7563 14.1239 57.1018 14.1679 57.4032C14.2119 57.7041 14.294 57.9627 14.3895 58.1631C14.431 58.2653 14.4841 58.3539 14.5315 58.4313C14.5549 58.4697 14.5765 58.5054 14.5964 58.538C14.6165 58.5656 14.635 58.5909 14.6513 58.6133C14.7167 58.7039 14.7515 58.7519 14.7515 58.7519C14.8185 58.8447 14.9485 58.8662 15.0421 58.7995C15.1354 58.7331 15.157 58.6037 15.09 58.5109C15.0847 58.5035 15.078 58.4957 15.0721 58.4892Z" fill="#23417f"/>
<path fill-rule="evenodd" clip-rule="evenodd" d="M39.5074 58.0534L39.5071 58.0531L39.5058 58.0522L39.5003 58.0481C39.4954 58.0444 39.4879 58.0388 39.4779 58.0315C39.4579 58.0169 39.4278 57.9955 39.3884 57.9683C39.3095 57.9141 39.1931 57.8372 39.0436 57.7477C38.7447 57.5685 38.3145 57.3389 37.7904 57.1373C36.7412 56.7339 35.3225 56.4455 33.8266 56.8915C32.4991 57.2872 31.2107 58.0873 29.938 58.8777C29.7655 58.9848 29.5933 59.0917 29.4214 59.1974C27.9892 60.078 26.5688 60.8773 25.1574 60.9438C25.107 60.9461 25.0642 60.9074 25.0618 60.8574C25.0594 60.8073 25.0983 60.7647 25.1487 60.7623C26.5057 60.6984 27.887 59.9272 29.3253 59.043C29.4962 58.9379 29.6679 58.8312 29.8404 58.7241C31.1102 57.9353 32.4212 57.1208 33.7742 56.7175C35.3225 56.2559 36.7851 56.556 37.8563 56.968C38.3923 57.1741 38.8321 57.4088 39.138 57.5922C39.291 57.6839 39.4107 57.7628 39.4924 57.819C39.5332 57.8471 39.5646 57.8695 39.5859 57.885C39.5965 57.8928 39.6047 57.8988 39.6102 57.9029L39.6165 57.9077L39.6182 57.909L39.6187 57.9094L39.6189 57.9095C39.6189 57.9095 39.619 57.9096 39.5632 57.9815L39.6189 57.9095C39.6588 57.9401 39.6663 57.9972 39.6355 58.0369C39.6047 58.0766 39.5473 58.084 39.5074 58.0534Z" fill="#23417f"/>
<path d="M32.4651 52.0389C32.3074 50.7103 33.6851 49.3825 34.604 50.8664C35.523 52.3503 35.0287 53.8406 36.1154 54.7754C36.3761 54.9996 32.6228 53.3676 32.4651 52.0389ZM34.3926 51.5225C34.3502 50.8146 33.8091 50.3663 33.8438 50.4924C33.9183 50.7651 34.4355 52.2302 34.3926 51.5225Z" fill="#23417f"/>
<path d="M35.9133 55.4144C34.5032 55.1373 33.625 56.4413 31.8826 56.6337C30.1402 56.826 30.3462 54.9299 31.4974 54.2361C32.6487 53.5427 36.2516 55.4806 35.9133 55.4144ZM31.1186 56.2676C30.9973 56.3183 31.6856 56.4666 32.2734 56.0644C32.861 55.6627 31.3807 56.1584 31.1186 56.2676Z" fill="#23417f"/>
<path fill-rule="evenodd" clip-rule="evenodd" d="M1.46177 69.1252C0.654458 69.1252 0 68.4747 0 67.6723C0 66.8698 0.654458 66.2193 1.46177 66.2193C2.17541 66.2193 2.7696 66.7276 2.89789 67.3998H236.102C236.23 66.7276 236.825 66.2193 237.538 66.2193C238.346 66.2193 239 66.8698 239 67.6723C239 68.4747 238.346 69.1252 237.538 69.1252C236.825 69.1252 236.23 68.6169 236.102 67.9447H2.89789C2.7696 68.6169 2.17541 69.1252 1.46177 69.1252Z" fill="#23417f"/>
<path fill-rule="evenodd" clip-rule="evenodd" d="M116.074 116.844C115.83 116.632 115.434 116.081 115.8 115.572C116.257 114.937 117.17 113.484 115.891 113.121C114.868 112.83 114.125 113.908 113.881 114.483C113.638 115.118 113.443 116.989 114.612 119.386C115.079 120.343 115.546 121.236 115.971 122.048C116.877 123.78 117.594 125.15 117.718 126.015C117.901 127.287 118.267 131.918 117.353 133.734C117.122 134.193 116.803 134.751 116.464 135.346C115.46 137.104 114.271 139.186 114.612 140C113.425 139.818 109.131 136.822 108.308 135.823L108.266 135.772C107.396 134.716 104.75 131.504 105.019 128.467C105.03 128.382 105.04 128.297 105.05 128.212L105.05 128.211C105.311 126.019 105.583 123.737 108.308 121.203C108.428 121.094 108.57 120.968 108.727 120.828C109.886 119.796 111.871 118.028 111.871 117.389C111.871 116.807 111.262 117.51 110.958 117.933C109.466 119.356 106.317 122.274 105.659 122.565C104.837 122.928 102.735 123.564 99.9945 123.382C97.2536 123.2 92.9597 119.568 92.4115 118.751C92.2499 118.51 92.0011 118.151 91.7234 117.75C91.0589 116.791 90.2294 115.593 90.0361 115.209C89.8169 114.773 89.5793 114.119 89.488 113.847C90.767 113.665 92.777 113.211 95.061 111.758C97.345 110.305 101.73 110.215 102.918 111.123C103.251 111.377 103.727 111.881 104.282 112.468C105.709 113.978 107.658 116.041 109.039 115.845C108.308 116.571 103.74 119.931 96.6141 117.207C96.8795 117.339 97.1388 117.483 97.408 117.632C98.6215 118.305 100.035 119.089 103.101 119.386C103.649 119.386 109.953 119.386 111.415 115.572C111.429 115.46 111.442 115.353 111.454 115.251C111.603 114.032 111.668 113.497 112.511 112.576C113.607 111.758 115.709 111.395 116.896 112.848C118.084 114.301 117.901 114.937 117.718 115.572C117.536 116.208 117.17 117.207 116.074 116.844ZM106.024 123.11C105.111 124.441 103.558 127.795 104.654 130.556C104.518 130.659 104.366 130.784 104.196 130.923C102.419 132.383 98.6318 135.494 90.1275 133.008C91.0411 131.373 91.6806 128.921 91.9547 127.196C92.4115 125.561 94.1186 122.565 95.1523 122.201C96.34 122.928 100.355 125.017 103.101 124.199C102.278 125.561 98.4413 129.466 96.6141 129.92C98.4413 129.466 104.471 125.834 105.111 123.654C105.257 123.436 105.781 123.2 106.024 123.11ZM116.257 125.652C115.922 124.502 114.667 121.529 112.328 118.842C112.289 118.867 112.246 118.893 112.201 118.922C110.766 119.823 106.442 122.539 110.958 133.189C110.924 133.006 110.887 132.809 110.848 132.601C110.247 129.396 109.121 123.397 111.78 120.839C112.072 120.621 112.267 120.385 112.328 120.294C113.059 121.142 114.868 123.4 116.257 125.652Z" fill="#23417f"/>
<path fill-rule="evenodd" clip-rule="evenodd" d="M122.835 116.844C123.078 116.632 123.474 116.081 123.109 115.572C122.652 114.937 121.738 113.484 123.017 113.121C124.041 112.83 124.784 113.908 125.027 114.483C125.271 115.118 125.466 116.989 124.296 119.386C123.83 120.343 123.363 121.236 122.938 122.048C122.031 123.78 121.315 125.15 121.19 126.015C121.007 127.287 120.642 131.918 121.556 133.734C121.787 134.193 122.105 134.751 122.445 135.346C123.449 137.104 124.638 139.186 124.296 140C125.484 139.818 129.778 136.822 130.6 135.823L130.643 135.772C131.512 134.716 134.159 131.504 133.889 128.467C133.879 128.382 133.869 128.297 133.859 128.212L133.859 128.211C133.598 126.019 133.326 123.737 130.6 121.203C130.481 121.094 130.339 120.968 130.182 120.828C129.022 119.796 127.037 118.028 127.037 117.389C127.037 116.807 127.646 117.51 127.951 117.933C129.443 119.356 132.592 122.274 133.25 122.565C134.072 122.928 136.173 123.564 138.914 123.382C141.655 123.2 145.949 119.568 146.497 118.751C146.659 118.51 146.908 118.151 147.185 117.75C147.85 116.791 148.679 115.593 148.873 115.209C149.092 114.773 149.329 114.119 149.421 113.847C148.142 113.665 146.132 113.211 143.848 111.758C141.564 110.305 137.178 110.215 135.991 111.123C135.658 111.377 135.182 111.881 134.627 112.468C133.2 113.978 131.251 116.041 129.869 115.845C130.6 116.571 135.168 119.931 142.295 117.207C142.029 117.339 141.77 117.483 141.501 117.632C140.287 118.305 138.874 119.089 135.808 119.386C135.26 119.386 128.956 119.386 127.494 115.572C127.48 115.46 127.467 115.353 127.454 115.251C127.306 114.032 127.241 113.497 126.398 112.576C125.301 111.758 123.2 111.395 122.012 112.848C120.825 114.301 121.007 114.937 121.19 115.572C121.373 116.208 121.738 117.207 122.835 116.844ZM132.884 123.11C133.798 124.441 135.351 127.795 134.255 130.556C134.39 130.659 134.542 130.784 134.712 130.923C136.49 132.383 140.277 135.494 148.781 133.008C147.868 131.373 147.228 128.921 146.954 127.196C146.497 125.561 144.79 122.565 143.756 122.201C142.569 122.928 138.554 125.017 135.808 124.199C136.63 125.561 140.467 129.466 142.295 129.92C140.467 129.466 134.438 125.834 133.798 123.654C133.652 123.436 133.128 123.2 132.884 123.11ZM122.652 125.652C122.987 124.502 124.242 121.529 126.58 118.842C126.62 118.867 126.662 118.893 126.708 118.922C128.143 119.823 132.467 122.539 127.951 133.189C127.984 133.006 128.021 132.809 128.061 132.601C128.662 129.396 129.788 123.397 127.129 120.839C126.836 120.621 126.641 120.385 126.58 120.294C125.85 121.142 124.041 123.4 122.652 125.652Z" fill="#23417f"/>
<path fill-rule="evenodd" clip-rule="evenodd" d="M166.642 116.298C166.734 115.934 167.154 115.262 168.104 115.48C169.054 115.698 171.85 116.6 173.129 117.024L168.104 118.114C167.617 118.144 166.642 117.987 166.642 117.115V116.933H148.671C148.709 116.878 148.746 116.823 148.782 116.769C148.869 116.64 148.954 116.512 149.036 116.388H166.642V116.298ZM147.939 116.388C147.82 116.564 147.694 116.748 147.567 116.933H147.091V116.388H147.939Z" fill="#23417f"/>
<path fill-rule="evenodd" clip-rule="evenodd" d="M166.994 115.6C167.252 115.396 167.623 115.277 168.125 115.392C169.08 115.611 171.881 116.515 173.158 116.938L173.473 117.042L168.117 118.204L168.11 118.204C167.856 118.22 167.474 118.188 167.151 118.035C166.823 117.879 166.551 117.594 166.551 117.115V117.024H148.499L148.595 116.883C148.633 116.827 148.67 116.772 148.706 116.718C148.793 116.59 148.878 116.462 148.959 116.339L148.986 116.298L166.551 116.298V116.286L166.554 116.276C166.603 116.078 166.74 115.801 166.994 115.6ZM166.734 116.309V116.479H149.085C149.012 116.591 148.935 116.705 148.858 116.82C148.853 116.827 148.848 116.835 148.843 116.842H166.734V117.115C166.734 117.508 166.949 117.737 167.23 117.871C167.513 118.005 167.858 118.037 168.091 118.024L172.784 117.006C171.406 116.553 168.957 115.769 168.083 115.569C167.635 115.466 167.321 115.574 167.108 115.742C166.896 115.91 166.778 116.144 166.734 116.309ZM147 116.298H148.11L148.015 116.439C147.896 116.615 147.77 116.799 147.642 116.984L147.615 117.024H147V116.298ZM147.182 116.479V116.842H147.519C147.603 116.72 147.686 116.598 147.767 116.479H147.182Z" fill="#23417f"/>
<path fill-rule="evenodd" clip-rule="evenodd" d="M72.2664 116.298C72.1751 115.934 71.7548 115.262 70.8047 115.48C69.8545 115.698 67.0589 116.6 65.7798 117.024L70.8047 118.114C71.2919 118.144 72.2664 117.987 72.2664 117.115V116.933H90.2375C90.1999 116.878 90.1628 116.823 90.1265 116.769C90.04 116.64 89.9543 116.512 89.873 116.388H72.2664V116.298ZM90.9698 116.388C91.0888 116.564 91.2144 116.748 91.3419 116.933H91.8177V116.388H90.9698Z" fill="#23417f"/>
<path fill-rule="evenodd" clip-rule="evenodd" d="M71.9145 115.6C71.6567 115.396 71.2854 115.277 70.7841 115.392C69.8287 115.611 67.0281 116.515 65.7509 116.938L65.4357 117.042L70.792 118.204L70.799 118.204C71.0526 118.22 71.4348 118.188 71.7576 118.035C72.0857 117.879 72.3578 117.594 72.3578 117.115V117.024H90.4093L90.3133 116.883C90.2757 116.827 90.2387 116.772 90.2025 116.718C90.1161 116.59 90.0305 116.462 89.9495 116.339L89.9224 116.298L72.3578 116.298V116.286L72.3551 116.276C72.3055 116.078 72.1683 115.801 71.9145 115.6ZM72.1751 116.309V116.479H89.8236C89.897 116.591 89.9735 116.705 90.0506 116.82C90.0557 116.827 90.0609 116.835 90.0661 116.842H72.1751V117.115C72.1751 117.508 71.9599 117.737 71.6789 117.871C71.3955 118.005 71.0508 118.037 70.8172 118.024L66.1248 117.006C67.5024 116.553 69.952 115.769 70.8252 115.569C71.2741 115.466 71.588 115.574 71.8007 115.742C72.0129 115.91 72.131 116.144 72.1751 116.309ZM91.909 116.298H90.7983L90.894 116.439C91.0131 116.615 91.1389 116.799 91.2665 116.984L91.2937 117.024H91.909V116.298ZM91.7263 116.479V116.842H91.3901C91.3059 116.72 91.2226 116.598 91.1417 116.479H91.7263Z" fill="#23417f"/>
<path d="M57.6715 81.8271V82.1676L57.6259 82.3039L57.0663 82.633C56.9292 82.7163 56.8493 82.7806 56.8265 82.826C56.8036 82.8714 56.7732 83.0984 56.7351 83.5071C56.7046 83.9081 56.6894 84.4 56.6894 84.9827C56.6894 85.6411 56.7313 86.3562 56.815 87.1281L56.7465 87.2416C54.6604 88.0362 52.5173 88.4335 50.317 88.4335C48.6268 88.4335 47.1003 88.1156 45.7375 87.48C44.3747 86.8443 43.2936 85.9022 42.4942 84.6535C41.6948 83.4049 41.2951 81.9217 41.2951 80.2039C41.2951 77.5856 42.1935 75.5045 43.9903 73.9608C45.7946 72.417 48.1472 71.6452 51.0479 71.6452C53.1796 71.6452 55.0944 72.0046 56.7922 72.7235L56.8721 72.8484C56.7351 73.3554 56.5752 74.4186 56.3925 76.038L56.3011 76.1175H55.7758L55.6844 76.0267L55.6273 74.8235C55.6045 74.43 55.5779 74.1992 55.5474 74.1311C55.5246 74.0629 55.4446 73.9759 55.3076 73.87C55.1705 73.7565 54.8165 73.5824 54.2455 73.3478C53.6821 73.1057 53.1149 72.9316 52.5439 72.8257C51.9729 72.7122 51.36 72.6554 50.7053 72.6554C49.312 72.6554 48.0787 72.943 47.0052 73.5181C45.9317 74.0932 45.1208 74.9332 44.5727 76.038C44.0321 77.1353 43.7619 78.3575 43.7619 79.7045C43.7619 81.0969 44.055 82.3947 44.6412 83.5979C45.2274 84.7935 46.0687 85.7281 47.165 86.4016C48.2614 87.0751 49.5366 87.4119 50.9908 87.4119C51.6227 87.4119 52.266 87.3513 52.9208 87.2302C53.5831 87.1016 54.1275 86.9238 54.5539 86.6967C54.6224 86.4546 54.6566 85.9665 54.6566 85.2324V83.9725C54.6566 83.3746 54.6186 83.0038 54.5424 82.8601C54.4663 82.7087 54.276 82.6028 53.9714 82.5422C53.6745 82.4817 53.0274 82.4439 52.03 82.4287L51.9272 82.3266V81.8271L52.03 81.725L52.7266 81.7477C53.9219 81.7855 54.8965 81.8044 55.6502 81.8044C56.0841 81.8044 56.7199 81.7817 57.5573 81.7363L57.6715 81.8271Z" fill="#23417f"/>
<path d="M58.9049 72.0538L58.9963 71.9743C60.3895 72.0349 61.4744 72.0652 62.251 72.0652C63.1113 72.0652 64.2724 72.0387 65.7341 71.9857C66.2747 71.9706 66.6668 71.963 66.9104 71.963C68.8366 71.963 70.1423 72.3111 70.8275 73.0073C71.5127 73.7035 71.8553 74.5283 71.8553 75.4818C71.8553 76.1175 71.6878 76.7418 71.3528 77.3548C71.0178 77.9677 70.523 78.4937 69.8682 78.9326C69.2135 79.3639 68.3113 79.6893 67.1617 79.9088C67.3748 80.2039 67.7593 80.7147 68.3151 81.4412L69.9367 83.5752C70.4621 84.279 71.0255 85.0243 71.6269 85.8114C72.2284 86.5908 72.6167 87.0335 72.7918 87.1394C72.9669 87.2378 73.1153 87.2983 73.2371 87.3211C73.3666 87.3438 73.5683 87.3551 73.8424 87.3551L73.9338 87.4459V87.9794L73.831 88.0816C73.4656 88.0362 73.0316 88.0135 72.5291 88.0135C71.9886 88.0135 71.3985 88.0362 70.759 88.0816C70.2337 87.4459 69.4076 86.3449 68.2808 84.7784C66.9713 82.9622 65.6314 81.2785 64.2609 79.7272L64.3751 79.3753C64.771 79.398 65.0794 79.4093 65.3002 79.4093C66.6173 79.4093 67.6489 79.0953 68.395 78.4672C69.1411 77.8391 69.5142 76.9688 69.5142 75.8564C69.5142 74.8575 69.1792 74.1046 68.5092 73.5976C67.8392 73.083 66.9332 72.8257 65.7912 72.8257C64.9918 72.8257 64.2381 72.9354 63.5301 73.1549C63.4159 73.3213 63.3588 74.7402 63.3588 77.4115V82.6671L63.3702 84.8806C63.3778 85.7357 63.4006 86.2881 63.4387 86.5378C63.4768 86.7875 63.5301 86.954 63.5986 87.0373C63.6747 87.1205 63.8156 87.1924 64.0211 87.2529C64.2267 87.3059 64.733 87.3475 65.54 87.3778L65.6314 87.4459V88.0135L65.54 88.1043C65.5019 88.1043 64.8319 88.0816 63.5301 88.0362C62.9895 88.021 62.567 88.0135 62.2624 88.0135C62.0264 88.0135 60.9377 88.0437 58.9963 88.1043L58.9049 88.0135V87.4459L58.9963 87.3778C59.7043 87.3475 60.1764 87.3097 60.4124 87.2643C60.6484 87.2189 60.8045 87.1621 60.8806 87.094C60.9643 87.0184 61.0291 86.8632 61.0747 86.6286C61.128 86.394 61.1585 85.8719 61.1661 85.0622L61.1775 82.6671V77.4115L61.1547 75.1981C61.1471 74.3354 61.1242 73.7792 61.0862 73.5294C61.0557 73.2797 61.0024 73.1132 60.9263 73.03C60.8578 72.9468 60.7207 72.8786 60.5151 72.8257C60.3096 72.7727 59.8033 72.7311 58.9963 72.7008L58.9049 72.6214V72.0538Z" fill="#23417f"/>
<path d="M74.5505 88.1043L74.4477 88.0135V87.4232L74.5505 87.3324C75.1062 87.3248 75.4641 87.2983 75.624 87.2529C75.7838 87.2 75.9247 87.1016 76.0465 86.9578C76.1759 86.8065 76.431 86.3222 76.8116 85.5049L78.0108 82.9168L81.117 75.9245C81.7033 74.5548 82.2857 73.1851 82.8643 71.8154H83.6066L89.1339 84.733C89.3243 85.1643 89.5413 85.6335 89.7849 86.1405C90.0361 86.6476 90.2074 86.9465 90.2988 87.0373C90.3978 87.1281 90.5158 87.2 90.6528 87.2529C90.7975 87.2983 91.1134 87.3248 91.6007 87.3324L91.692 87.4232V88.0135L91.6007 88.1043C90.7937 88.0362 90.0666 88.0021 89.4194 88.0021C88.1556 88.04 86.8918 88.074 85.628 88.1043L85.5366 88.0135V87.4232L85.628 87.3324C86.4807 87.3173 87.0136 87.2832 87.2268 87.2302C87.44 87.1697 87.5465 87.0373 87.5465 86.833C87.5465 86.6665 87.4932 86.447 87.3867 86.1746L85.982 82.7125H79.3697L78.125 85.6184C77.9042 86.1405 77.7938 86.5227 77.7938 86.7648C77.7938 86.954 77.8966 87.094 78.1021 87.1848C78.3077 87.2756 78.8254 87.3248 79.6552 87.3324L79.758 87.4232V88.0135L79.6667 88.1043C78.6845 88.0437 77.8242 88.0135 77.0857 88.0135C76.2483 88.0135 75.4032 88.0437 74.5505 88.1043ZM79.758 81.7363H85.5366L82.6702 74.8916L79.758 81.7363Z" fill="#23417f"/>
<path d="M93.0054 88.0929L92.9026 87.9908V87.4686L93.0054 87.3778C93.4698 87.3702 93.839 87.3438 94.1131 87.2983C94.3948 87.2529 94.5737 87.1773 94.6499 87.0713C94.7336 86.9654 94.7869 86.7951 94.8097 86.5605C94.8402 86.3259 94.8668 85.7962 94.8897 84.9714C94.9201 84.1465 94.9354 83.5563 94.9354 83.2006V74.0289C94.9354 73.643 94.863 73.3592 94.7184 73.1776C94.5813 72.9884 94.391 72.8711 94.1474 72.8257C93.9037 72.7727 93.4888 72.7424 92.9026 72.7349L92.8112 72.6441V72.1106L92.9026 72.0084C93.9532 72.0462 94.6422 72.0652 94.9696 72.0652C95.7386 72.0652 96.3705 72.0462 96.8654 72.0084L100.508 76.7078L105.864 83.3822C106.512 84.1919 107.17 84.96 107.84 85.6865V76.9007C107.84 76.6283 107.825 76.0494 107.794 75.164C107.772 74.2711 107.741 73.7073 107.703 73.4727C107.665 73.2305 107.596 73.0678 107.497 72.9846C107.406 72.9014 107.227 72.8408 106.961 72.803C106.702 72.7576 106.348 72.7311 105.899 72.7235L105.807 72.6327V72.1106L105.899 72.0084C106.515 72.0462 107.395 72.0652 108.537 72.0652C109.58 72.0652 110.337 72.0462 110.809 72.0084L110.912 72.1106V72.6327L110.821 72.7235C110.318 72.7311 109.93 72.7614 109.656 72.8143C109.382 72.8597 109.21 72.9392 109.142 73.0527C109.073 73.1662 109.024 73.3327 108.994 73.5521C108.971 73.7716 108.944 74.2938 108.914 75.1186C108.891 75.9435 108.879 76.5375 108.879 76.9007V82.2925L108.891 85.4141C108.906 86.4357 108.921 87.461 108.936 88.4902C108.556 88.3616 107.897 88.2027 106.961 88.0135L106.15 87.06L103.717 84.1087L95.9746 74.4943V83.2006C95.9746 83.5487 95.986 84.1692 96.0088 85.0622C96.0393 85.9551 96.0736 86.4962 96.1116 86.6854C96.1497 86.8746 96.1992 87.007 96.2601 87.0827C96.321 87.1508 96.4504 87.2151 96.6484 87.2756C96.8539 87.3362 97.2727 87.3702 97.9046 87.3778L97.9959 87.4686V88.0021L97.9046 88.0929C97.5087 88.04 96.8692 88.0135 95.986 88.0135C94.8516 88.0135 93.8581 88.04 93.0054 88.0929Z" fill="#23417f"/>
<path d="M118.21 71.9743C120.151 72.0349 121.24 72.0652 121.476 72.0652C121.727 72.0652 122.819 72.0349 124.753 71.9743L124.845 72.0538V72.6214L124.753 72.7008C124.228 72.716 123.821 72.7387 123.531 72.7689C123.25 72.7992 123.044 72.8559 122.915 72.9392C122.785 73.0224 122.698 73.2192 122.652 73.5294C122.614 73.8321 122.595 74.2559 122.595 74.8008L122.572 77.4115V79.0007C124.239 79.0461 125.819 79.0688 127.311 79.0688C129.352 79.0688 130.905 79.0461 131.971 79.0007V77.4115L131.948 75.1981C131.94 74.3354 131.917 73.7792 131.879 73.5294C131.841 73.2797 131.788 73.1132 131.72 73.03C131.651 72.9468 131.514 72.8786 131.308 72.8257C131.103 72.7727 130.593 72.7311 129.778 72.7008L129.698 72.6214V72.0538L129.778 71.9743C131.727 72.0349 132.82 72.0652 133.056 72.0652C133.315 72.0652 134.407 72.0349 136.333 71.9743L136.425 72.0538V72.6214L136.333 72.7008C135.8 72.716 135.389 72.7387 135.1 72.7689C134.818 72.7992 134.613 72.8559 134.483 72.9392C134.354 73.0224 134.27 73.2192 134.232 73.5294C134.194 73.8321 134.171 74.2559 134.163 74.8008L134.141 77.4115V82.6671L134.163 84.8806C134.171 85.7357 134.194 86.2881 134.232 86.5378C134.27 86.7875 134.323 86.954 134.392 87.0373C134.468 87.1205 134.605 87.1924 134.803 87.2529C135.009 87.3059 135.519 87.3475 136.333 87.3778L136.425 87.4459V88.0135L136.333 88.1043C134.384 88.0437 133.292 88.0135 133.056 88.0135C132.812 88.0135 131.72 88.0437 129.778 88.1043L129.698 88.0135V87.4459L129.778 87.3778C130.494 87.3475 130.97 87.3097 131.206 87.2643C131.442 87.2189 131.598 87.1621 131.674 87.094C131.75 87.0184 131.815 86.8632 131.868 86.6286C131.921 86.394 131.948 85.8719 131.948 85.0622L131.971 82.6671V80.079C129.717 80.0336 128.137 80.0109 127.231 80.0109C126.303 80.0109 124.749 80.0336 122.572 80.079V82.6671L122.583 84.8806C122.591 85.7357 122.614 86.2881 122.652 86.5378C122.69 86.7875 122.743 86.954 122.812 87.0373C122.888 87.1205 123.029 87.1924 123.234 87.2529C123.44 87.3059 123.946 87.3475 124.753 87.3778L124.845 87.4459V88.0135L124.753 88.1043C122.812 88.0437 121.719 88.0135 121.476 88.0135C121.24 88.0135 120.151 88.0437 118.21 88.1043L118.118 88.0135V87.4459L118.21 87.3778C118.918 87.3475 119.39 87.3097 119.626 87.2643C119.862 87.2189 120.018 87.1621 120.094 87.094C120.178 87.0184 120.242 86.8632 120.288 86.6286C120.341 86.394 120.372 85.8719 120.379 85.0622L120.391 82.6671V77.4115L120.368 75.1981C120.36 74.3354 120.337 73.7792 120.299 73.5294C120.269 73.2797 120.216 73.1132 120.14 73.03C120.071 72.9468 119.934 72.8786 119.728 72.8257C119.523 72.7727 119.017 72.7311 118.21 72.7008L118.118 72.6214V72.0538L118.21 71.9743Z" fill="#23417f"/>
<path d="M137.544 80.1926C137.544 79.0574 137.707 77.998 138.035 77.0142C138.362 76.0305 138.918 75.1224 139.702 74.29C140.494 73.45 141.446 72.803 142.557 72.3489C143.669 71.8873 144.925 71.6565 146.326 71.6565C148.922 71.6565 150.989 72.3603 152.527 73.7678C154.065 75.1678 154.834 77.0823 154.834 79.5115C154.834 81.2217 154.457 82.7579 153.703 84.12C152.949 85.4822 151.868 86.5416 150.46 87.2983C149.059 88.0551 147.483 88.4335 145.732 88.4335C144.491 88.4335 143.349 88.2291 142.306 87.8205C141.263 87.4043 140.372 86.7875 139.634 85.9703C138.903 85.153 138.37 84.2071 138.035 83.1325C137.707 82.0579 137.544 81.0779 137.544 80.1926ZM139.919 79.4434C139.919 80.3666 140.068 81.3617 140.365 82.4287C140.669 83.4882 141.118 84.4 141.712 85.1643C142.314 85.9211 143.003 86.4849 143.779 86.8557C144.563 87.2265 145.454 87.4119 146.451 87.4119C147.632 87.4119 148.682 87.1432 149.603 86.6059C150.525 86.0686 151.225 85.2362 151.705 84.1087C152.184 82.9736 152.424 81.7022 152.424 80.2947C152.424 78.7661 152.15 77.385 151.602 76.1516C151.054 74.9181 150.273 74.0213 149.261 73.4613C148.248 72.9014 147.125 72.6214 145.892 72.6214C144.042 72.6214 142.584 73.1965 141.518 74.3467C140.452 75.497 139.919 77.1959 139.919 79.4434Z" fill="#23417f"/>
<path d="M169.166 71.9743L169.269 72.0765C169.2 72.7576 169.166 73.9457 169.166 75.6408L169.075 75.7316H168.538L168.447 75.6294L168.321 74.5851C168.26 74.0251 168.211 73.6846 168.173 73.5635C168.142 73.4349 168.089 73.344 168.013 73.2911C167.936 73.2305 167.689 73.1813 167.27 73.1435C166.852 73.1057 166.383 73.0868 165.866 73.0868H163.707C163.646 74.797 163.616 75.7845 163.616 76.0494V82.6671L163.639 84.8806C163.646 85.7357 163.665 86.2919 163.696 86.5492C163.734 86.7989 163.787 86.9654 163.856 87.0486C163.932 87.1243 164.073 87.1924 164.278 87.2529C164.484 87.3059 164.994 87.3475 165.809 87.3778L165.888 87.4459V88.0135L165.809 88.1043C163.86 88.0437 162.771 88.0135 162.542 88.0135C162.299 88.0135 161.214 88.0437 159.288 88.1043L159.196 88.0135V87.4459L159.288 87.3778C160.003 87.3475 160.475 87.3097 160.704 87.2643C160.94 87.2189 161.096 87.1621 161.172 87.094C161.256 87.0184 161.324 86.8632 161.378 86.6286C161.431 86.394 161.457 85.8719 161.457 85.0622L161.48 82.6671V76.0494C161.48 75.9283 161.45 74.9408 161.389 73.0868H159.687C158.987 73.0868 158.382 73.1019 157.872 73.1322C157.361 73.1624 157.065 73.2419 156.981 73.3705C156.905 73.4916 156.832 73.8965 156.764 74.5851L156.65 75.6294L156.547 75.7316H156.022L155.93 75.6408C155.915 73.817 155.881 72.6289 155.827 72.0765L155.93 71.9743C157.255 72.0349 159.459 72.0652 162.542 72.0652C165.687 72.0652 167.895 72.0349 169.166 71.9743Z" fill="#23417f"/>
<path d="M170.559 72.0538L170.651 71.9743C173.262 72.0197 174.933 72.0425 175.664 72.0425C178.161 72.0425 180.384 72.0197 182.333 71.9743L182.391 72.0538C182.2 72.7803 182.059 73.9192 181.968 75.4705L181.899 75.5613H181.34L181.237 75.4705C181.245 75.4024 181.249 75.3418 181.249 75.2889C181.249 74.6456 181.199 74.0327 181.1 73.45C180.62 73.2381 179.954 73.1019 179.102 73.0413C178.256 72.9732 177.621 72.9392 177.194 72.9392C176.593 72.9392 175.824 72.9808 174.888 73.0641L174.842 74.8802L174.808 76.9575L174.773 79.2618C175.596 79.3072 176.353 79.3299 177.046 79.3299C177.746 79.3299 178.333 79.3072 178.805 79.2618C179.277 79.2164 179.551 79.171 179.627 79.1255C179.711 79.0726 179.772 78.978 179.81 78.8418C179.855 78.698 179.893 78.4483 179.924 78.0926L179.969 77.3888L180.061 77.298H180.586L180.678 77.3888C180.662 78.2137 180.643 79.0423 180.62 79.8747L180.678 82.4287L180.586 82.5195H180.061L179.969 82.4287L179.89 81.7477C179.821 81.2179 179.772 80.9039 179.741 80.8055C179.711 80.6996 179.638 80.6088 179.524 80.5331C179.418 80.4574 179.136 80.3969 178.679 80.3515C178.222 80.3061 177.594 80.2834 176.795 80.2834C176.353 80.2834 175.679 80.3023 174.773 80.3401C174.735 80.9758 174.716 82.0352 174.716 83.5184C174.716 85.1076 174.735 86.2767 174.773 87.0259H176.875C178.725 87.0259 179.882 87.0032 180.346 86.9578C180.811 86.9124 181.252 86.8027 181.671 86.6286C181.74 86.4546 181.85 86.0535 182.002 85.4254C182.162 84.7898 182.253 84.3925 182.276 84.2335L182.391 84.1541H182.939L183.03 84.2335C182.962 84.5589 182.893 85.1265 182.825 85.9362C182.764 86.7459 182.733 87.4383 182.733 88.0135L182.653 88.1043C181.199 88.0589 179.296 88.0362 176.943 88.0362L173.837 88.0135C173.114 88.0135 172.36 88.0437 171.576 88.1043L171.484 88.0135V87.6389L171.576 87.5254C172.025 87.2983 172.28 87.1584 172.341 87.1054C172.409 87.0448 172.463 86.3827 172.501 85.1189C172.546 83.8476 172.569 82.879 172.569 82.213V78.0472L172.558 75.4705C172.558 74.9105 172.55 74.4565 172.535 74.1084C172.52 73.7527 172.493 73.4992 172.455 73.3478C172.417 73.1965 172.371 73.0905 172.318 73.03C172.272 72.9695 172.192 72.9203 172.078 72.8824C171.972 72.837 171.785 72.7992 171.519 72.7689L170.651 72.7008L170.559 72.6214V72.0538Z" fill="#23417f"/>
<path d="M184.446 72.0538L184.538 71.9743C186.426 72.0349 187.514 72.0652 187.804 72.0652C188.063 72.0652 189.155 72.0349 191.081 71.9743L191.173 72.0538V72.6214L191.081 72.7008C190.556 72.716 190.149 72.7387 189.859 72.7689C189.578 72.7992 189.372 72.8559 189.243 72.9392C189.113 73.0224 189.026 73.2192 188.98 73.5294C188.942 73.8321 188.923 74.2559 188.923 74.8008L188.9 77.4115V82.4287C188.9 83.6849 188.908 84.5627 188.923 85.0622L188.98 87.0259H191.31C193.167 87.0259 194.325 87.0032 194.781 86.9578C195.246 86.9124 195.691 86.8027 196.118 86.6286C196.201 86.4394 196.319 86.0043 196.472 85.3233C196.631 84.6422 196.715 84.2487 196.723 84.1427L196.826 84.0519H197.385L197.465 84.1427C197.404 84.4454 197.339 85.0319 197.271 85.9022C197.21 86.7724 197.18 87.4762 197.18 88.0135L197.088 88.1043C195.642 88.0589 193.742 88.0362 191.39 88.0362L188.055 88.0135C187.294 88.0135 186.517 88.0437 185.725 88.1043L185.634 88.0135V87.6389L185.725 87.5254C186.197 87.2832 186.456 87.1356 186.502 87.0827C186.547 87.0297 186.593 86.5416 186.639 85.6184C186.692 84.6952 186.719 83.5828 186.719 82.2812V77.4115L186.696 75.1981C186.688 74.3354 186.665 73.7792 186.627 73.5294C186.597 73.2797 186.544 73.1132 186.468 73.03C186.399 72.9468 186.262 72.8786 186.056 72.8257C185.851 72.7727 185.345 72.7311 184.538 72.7008L184.446 72.6214V72.0538Z" fill="#23417f"/>
<path d="M78.2963 106.198V94.3587H76.2977V92.3836H81.9735C83.6409 92.3836 84.8895 92.5009 85.7193 92.7355C86.5492 92.9701 87.242 93.5036 87.7978 94.336C88.3612 95.1609 88.6429 96.1371 88.6429 97.2646C88.6429 98.1651 88.4563 98.9749 88.0833 99.6938C87.7178 100.405 87.261 100.931 86.7129 101.272C86.1723 101.612 85.5594 101.843 84.8742 101.964C84.1966 102.077 83.1688 102.134 81.7908 102.134H80.6945V106.198H82.7501V108.173H76.2977V106.198H78.2963ZM80.6945 100.227H82.0649C83.6256 100.227 84.7067 100.008 85.3082 99.5689C85.9097 99.1224 86.2104 98.3392 86.2104 97.2192C86.2104 96.5079 86.0505 95.9176 85.7307 95.4484C85.411 94.9793 85.0151 94.6804 84.5431 94.5517C84.071 94.4231 83.283 94.3587 82.1791 94.3587H80.6945V100.227Z" fill="#23417f"/>
<path d="M106.161 102.622H100.451L99.2293 106.198H101.159V108.173H94.9011V106.198H96.8197L101.159 94.1658H99.2293V92.3836H107.349V94.1658H105.373L109.816 106.198H111.597V108.173H105.373V106.198H107.349L106.161 102.622ZM105.567 100.772L103.455 94.1658H103.238L101.045 100.772H105.567Z" fill="#23417f"/>
<path d="M119.74 106.198V94.3587H117.559V92.3836H124.011C125.359 92.3836 126.428 92.4896 127.22 92.7015C128.012 92.9058 128.667 93.3447 129.184 94.0182C129.702 94.6841 129.961 95.5166 129.961 96.5155C129.961 98.6041 128.868 99.917 126.683 100.454L129.493 106.198H131.434V108.173H127.997L124.376 100.795H122.138V106.198H124.171V108.173H117.559V106.198H119.74ZM122.138 98.8197H124.011C124.917 98.8197 125.583 98.763 126.009 98.6495C126.443 98.5284 126.797 98.29 127.072 97.9343C127.346 97.5711 127.483 97.0868 127.483 96.4814C127.483 95.9668 127.342 95.5317 127.06 95.176C126.786 94.8204 126.443 94.5971 126.032 94.5063C125.629 94.4079 125.008 94.3587 124.171 94.3587H122.138V98.8197Z" fill="#23417f"/>
<path d="M139.702 106.198V94.3587H137.978V92.3836H143.825V94.3587H142.1V106.198H143.825V108.173H137.978V106.198H139.702Z" fill="#23417f"/>
<path d="M151.236 108.173V102.441H153.224V103.837C154.175 105.555 155.42 106.414 156.958 106.414C157.742 106.414 158.405 106.175 158.945 105.699C159.486 105.222 159.756 104.597 159.756 103.826C159.756 103.076 159.535 102.539 159.094 102.214C158.652 101.881 157.818 101.552 156.593 101.226C155.169 100.848 154.114 100.492 153.429 100.159C152.744 99.8186 152.196 99.3381 151.785 98.7176C151.381 98.0895 151.179 97.3479 151.179 96.4928C151.179 95.1685 151.621 94.1128 152.504 93.3258C153.395 92.5312 154.51 92.1339 155.85 92.1339C157.122 92.1339 158.302 92.5426 159.39 93.3598V92.3042H161.332V97.0944H159.39V95.9933C158.576 94.7749 157.453 94.1658 156.022 94.1658C155.154 94.1658 154.487 94.3663 154.023 94.7674C153.559 95.1609 153.326 95.6338 153.326 96.1863C153.326 96.61 153.444 96.9846 153.68 97.31C153.916 97.6279 154.217 97.8625 154.583 98.0138C154.948 98.1651 155.667 98.377 156.741 98.6495C158.142 99.0127 159.158 99.3532 159.79 99.6711C160.422 99.9813 160.966 100.503 161.423 101.238C161.88 101.972 162.108 102.815 162.108 103.769C162.108 105.116 161.629 106.228 160.669 107.106C159.718 107.984 158.538 108.423 157.129 108.423C155.683 108.423 154.381 107.904 153.224 106.868V108.173H151.236Z" fill="#23417f"/>
</svg>
