<svg width="54" height="54" viewBox="0 0 54 54" fill="none" xmlns="http://www.w3.org/2000/svg">
<rect width="54" height="54" rx="10" fill="#DBDDEA"/>
<path d="M38.1258 13.7974C39.7591 15.3255 40.7871 17.4926 40.7871 19.9004C40.7871 20.6566 40.6856 21.4091 40.4849 22.137C40.4016 22.4356 40.3033 22.7282 40.189 23.0124L39.969 23.5139L32.4195 37.4687L24.6426 22.9931C24.5267 22.7015 24.4338 22.4227 24.3547 22.1364C24.1539 21.4111 24.0519 20.6587 24.0519 19.9004C24.0519 17.5306 25.0466 15.3924 26.6351 13.8685L21.215 10.3744V15.5232H20.1212V10.2614L9 15.9271V45L20.1212 38.0673V32.4326H21.215V38.069L31.8726 44.7128V39.3571H32.9664V44.6199L44 37.9963V10L38.1258 13.7974ZM21.215 29.3949H20.1212V25.4968H21.215V29.3949ZM21.215 22.459H20.1212V18.5609H21.215V22.459Z" fill="#050505"/>
<path d="M32.4196 16.9166C30.8132 16.9166 29.5059 18.2234 29.5059 19.8299C29.5059 21.4363 30.8132 22.7431 32.4196 22.7431C34.0261 22.7431 35.3335 21.4363 35.3335 19.8299C35.3335 18.2234 34.0261 16.9166 32.4196 16.9166Z" fill="#050505"/>
<path d="M32.4194 12.6265C28.4086 12.6265 25.1455 15.8896 25.1455 19.9004C25.1455 20.5599 25.2342 21.2146 25.4088 21.8454C25.4772 22.0938 25.5584 22.3362 25.6513 22.5723L25.8804 23.0919L32.4194 35.1701L39.1806 22.5877C39.2735 22.3575 39.3589 22.1044 39.4294 21.8459C39.6046 21.2126 39.6933 20.5583 39.6933 19.9004C39.6932 15.8896 36.4301 12.6265 32.4194 12.6265ZM32.4194 23.8369C30.2094 23.8369 28.4118 22.0393 28.4118 19.8299C28.4118 17.6205 30.2094 15.8229 32.4194 15.8229C34.6293 15.8229 36.4269 17.6205 36.4269 19.8299C36.4269 22.0393 34.6293 23.8369 32.4194 23.8369Z" fill="#050505"/>
</svg>
