<svg width="32" height="32" viewBox="0 0 32 32" fill="none" xmlns="http://www.w3.org/2000/svg">
<path d="M4 11V21H9L19 27V5L9 11H4ZM17 8.532V23.467L9.554 19H6V13H9.554L17 8.532ZM21.657 21.657L20.243 20.243C22.582 17.903 22.582 14.097 20.243 11.757L21.657 10.343C24.775 13.462 24.775 18.538 21.657 21.657ZM24.485 24.485L23.071 23.071C26.97 19.172 26.97 12.828 23.071 8.928L24.485 7.514C29.164 12.193 29.164 19.807 24.485 24.485Z" fill="#3D3D3D"/>
<line x1="2.70711" y1="3.29289" x2="28.7071" y2="29.2929" stroke="#3D3D3D" stroke-width="2"/>
</svg>
