<svg width="24" height="24" viewBox="0 0 24 24" fill="none" xmlns="http://www.w3.org/2000/svg">
<path d="M23.3701 18.2976L19.7147 14.6422C18.8749 13.8024 17.5084 13.8024 16.6686 14.6422L16.1857 15.1251C15.8127 15.4981 15.3167 15.7036 14.7891 15.7036C14.2615 15.7036 13.7656 15.4981 13.3925 15.1251L8.87502 10.6075C8.50195 10.2344 8.29646 9.73851 8.29646 9.21087C8.29646 8.68324 8.50195 8.18731 8.87502 7.81424L9.35785 7.33141C10.1977 6.49162 10.1977 5.12506 9.35785 4.28527L5.70231 0.629906C4.86252 -0.209969 3.49596 -0.209969 2.65617 0.629906C-0.431922 3.71792 -0.880378 8.5733 1.5897 12.1748C4.35272 16.2035 7.79648 19.6472 11.8251 22.4102C13.3814 23.4776 15.1714 24.0001 16.9522 24C19.2925 23.9999 21.6164 23.0974 23.37 21.3438C23.7768 20.937 24.0009 20.3961 24.0009 19.8207C24.0009 19.2453 23.7769 18.7044 23.3701 18.2976ZM3.7528 1.72636C3.8667 1.61254 4.01817 1.54982 4.17929 1.54982C4.3404 1.54982 4.49187 1.61254 4.60577 1.72645L8.26114 5.38181C8.37504 5.49571 8.43776 5.64718 8.43776 5.8083C8.43776 5.96941 8.37504 6.12079 8.26114 6.23478L8.04359 6.45233L3.54008 1.94882C3.60943 1.87361 3.68 1.79925 3.7528 1.72636ZM12.7023 21.1313C8.83176 18.4766 5.52327 15.1681 2.86864 11.2976C1.18235 8.83893 1.13823 5.67613 2.60422 3.20631L7.08843 7.69052C6.86416 8.15922 6.74543 8.67591 6.74543 9.21087C6.74543 10.1528 7.11221 11.0382 7.77822 11.7041L12.2957 16.2216C12.9617 16.8876 13.8471 17.2544 14.7889 17.2544C15.3239 17.2544 15.8406 17.1357 16.3093 16.9114L20.7936 21.3957C18.3239 22.8617 15.1611 22.8176 12.7023 21.1313ZM22.2735 20.2471C22.2006 20.32 22.1262 20.3906 22.0511 20.4598L17.5476 15.9563L17.7651 15.7388C17.879 15.6249 18.0305 15.5621 18.1916 15.5621C18.3527 15.5621 18.5042 15.6249 18.6181 15.7388L22.2735 19.3941C22.5086 19.6293 22.5086 20.012 22.2735 20.2471Z" fill="#23417f"/>
</svg>
