<svg width="33" height="32" viewBox="0 0 33 32" fill="none" xmlns="http://www.w3.org/2000/svg">
<path d="M16.7898 0.027C18.5348 0 20.2698 0.016 22.0028 0C22.1078 2.041 22.8418 4.12 24.3358 5.563C25.8268 7.042 27.9358 7.719 29.9878 7.948V13.317C28.0648 13.254 26.1328 12.854 24.3878 12.026C23.6278 11.682 22.9198 11.239 22.2268 10.786C22.2178 14.682 22.2428 18.573 22.2018 22.453C22.0978 24.317 21.4828 26.172 20.3988 27.708C18.6548 30.265 15.6278 31.932 12.5188 31.984C10.6118 32.093 8.70678 31.573 7.08178 30.615C4.38878 29.027 2.49378 26.12 2.21778 23C2.18578 22.333 2.17478 21.667 2.20178 21.016C2.44178 18.479 3.69678 16.052 5.64478 14.401C7.85278 12.478 10.9458 11.562 13.8418 12.104C13.8688 14.079 13.7898 16.052 13.7898 18.027C12.4668 17.599 10.9208 17.719 9.76478 18.522C8.92078 19.069 8.27978 19.907 7.94578 20.855C7.66978 21.531 7.74878 22.282 7.76478 23C8.08178 25.188 10.1858 27.027 12.4318 26.828C13.9208 26.812 15.3478 25.948 16.1238 24.683C16.3748 24.24 16.6558 23.787 16.6708 23.266C16.8018 20.881 16.7498 18.506 16.7658 16.121C16.7768 10.746 16.7498 5.386 16.7908 0.028L16.7898 0.027Z" fill="#23417f"/>
</svg>
