<svg width="54" height="54" viewBox="0 0 54 54" fill="none" xmlns="http://www.w3.org/2000/svg">
<rect width="54" height="54" rx="10" fill="#DBDDEA"/>
<path d="M41.2886 13.7114C37.6055 10.0284 32.7086 8 27.5 8C22.2914 8 17.3945 10.0284 13.7114 13.7114C10.0284 17.3945 8 22.2914 8 27.5C8 32.7086 10.0284 37.6055 13.7114 41.2886C17.3945 44.9716 22.2914 47 27.5 47C32.7086 47 37.6055 44.9716 41.2886 41.2886C44.9716 37.6055 47 32.7086 47 27.5C47 22.2914 44.9716 17.3945 41.2886 13.7114ZM27.5 44.5876C18.0778 44.5876 10.4124 36.9222 10.4124 27.5C10.4124 18.0778 18.0778 10.4124 27.5 10.4124C36.9222 10.4124 44.5876 18.0778 44.5876 27.5C44.5876 36.9222 36.9222 44.5876 27.5 44.5876Z" fill="#050505"/>
<path d="M22.5596 35.0648L35.6568 27.5L22.5596 19.9352V35.0648Z" fill="#050505"/>
</svg>
