<svg width="54" height="54" viewBox="0 0 54 54" fill="none" xmlns="http://www.w3.org/2000/svg">
<rect width="54" height="54" rx="10" fill="#3D3D3D"/>
<path d="M18.6567 27.5C18.6567 22.5971 19.691 18.1837 21.3387 15.0146C22.9995 11.8205 25.204 10.0204 27.5 10.0204C29.4664 10.0204 31.3652 11.3396 32.9138 13.7282L31.6577 13.435C31.3833 13.371 31.1089 13.5415 31.0449 13.8159C30.9809 14.0903 31.1514 14.3647 31.4258 14.4287L33.8298 14.9898C33.8894 15.0059 33.9519 15.0112 34.0142 15.0049C34.0912 14.9972 34.1662 14.9721 34.2331 14.9305C34.348 14.8591 34.4299 14.7449 34.4606 14.6131L35.0259 12.1911C35.09 11.9167 34.9195 11.6423 34.6451 11.5783C34.3707 11.5142 34.0963 11.6848 34.0323 11.9592L33.7543 13.15C32.1048 10.6199 29.9468 9 27.5 9C24.6302 9 22.1579 11.2271 20.4334 14.5439C18.6958 17.8859 17.6363 22.4674 17.6363 27.5C17.6363 29.819 17.8612 32.0421 18.2739 34.0924C17.0759 33.755 15.9747 33.3544 14.9929 32.9017C11.7749 31.418 10.0204 29.4712 10.0204 27.5C10.0204 26.4322 10.5264 25.3777 11.5206 24.3858C12.3169 23.5913 13.4108 22.8543 14.7537 22.2108L14.3213 23.4554C14.2289 23.7216 14.3697 24.0123 14.6359 24.1048C14.902 24.1973 15.1928 24.0564 15.2852 23.7903L16.1015 21.4403C16.1157 21.3996 16.1245 21.3576 16.128 21.3153C16.1348 21.2375 16.1237 21.157 16.0924 21.0797C16.0299 20.9258 15.9009 20.8189 15.752 20.7788L13.4371 19.9746C13.1709 19.8822 12.8802 20.023 12.7877 20.2892C12.6952 20.5553 12.8361 20.8461 13.1022 20.9385L14.2303 21.3304C12.8461 22.0023 11.6786 22.7867 10.7999 23.6635C9.67572 24.7851 9 26.0848 9 27.5C9 30.1097 11.2727 32.3101 14.5657 33.8283C15.7424 34.3709 17.0731 34.8388 18.5231 35.2172C18.9967 37.1694 19.6454 38.9403 20.4335 40.4561C22.1581 43.7729 24.6304 46 27.5 46C29.1289 46 30.637 45.2761 31.9425 44.0522C32.148 43.8595 32.1584 43.5366 31.9657 43.331C31.773 43.1255 31.4501 43.1151 31.2445 43.3078C30.0772 44.4022 28.8072 44.9796 27.5 44.9796C25.2042 44.9796 22.9996 43.1795 21.3388 39.9854C20.6598 38.6794 20.0849 37.1622 19.6437 35.4864C22.0308 36.0123 24.6951 36.3046 27.5 36.3046C32.5243 36.3046 37.0978 35.3667 40.4343 33.8283C43.7273 32.3101 46 30.1097 46 27.5C46 27.2182 45.7716 26.9898 45.4898 26.9898C45.208 26.9898 44.9796 27.2182 44.9796 27.5C44.9796 29.4712 43.2251 31.418 40.0071 32.9017C36.8326 34.3653 32.4112 35.2842 27.5 35.2842C24.5631 35.2842 21.8014 34.9556 19.3767 34.3784C18.9141 32.2699 18.6567 29.9459 18.6567 27.5Z" fill="#F3A660"/>
<path d="M20.8144 24.5473C20.8144 24.2656 21.0429 24.0371 21.3246 24.0371H24.2773C24.5591 24.0371 24.7875 24.2656 24.7875 24.5473V30.4527C24.7875 30.7344 24.5591 30.9629 24.2773 30.9629H21.3246C21.0429 30.9629 20.8144 30.7344 20.8144 30.4527C20.8144 30.1709 21.0429 29.9425 21.3246 29.9425H23.7671V28.0102H21.3246C21.2542 28.0102 21.1871 27.9959 21.126 27.9701C20.9429 27.8927 20.8144 27.7113 20.8144 27.5C20.8144 27.4648 20.818 27.4304 20.8248 27.3972C20.8603 27.2237 20.9839 27.0822 21.1468 27.0217C21.2022 27.0011 21.2621 26.9898 21.3246 26.9898H23.7671V25.0575H21.3246C21.0429 25.0575 20.8144 24.8291 20.8144 24.5473Z" fill="#F3A660"/>
<path fill-rule="evenodd" clip-rule="evenodd" d="M25.5133 24.5473C25.5133 24.2656 25.7417 24.0371 26.0235 24.0371H28.9762C29.258 24.0371 29.4864 24.2656 29.4864 24.5473C29.4864 24.8291 29.258 25.0575 28.9762 25.0575H26.5337V26.9898H28.9762L28.9831 26.9899C28.991 26.99 28.9988 26.9902 29.0066 26.9907C29.2744 27.0062 29.4867 27.2283 29.4867 27.5C29.4867 27.5063 29.4866 27.5126 29.4864 27.5189V30.4527C29.4864 30.7344 29.258 30.9629 28.9762 30.9629H26.0235C25.7417 30.9629 25.5133 30.7344 25.5133 30.4527V24.5473ZM26.5337 28.0102V29.9425H28.466V28.0102H26.5337Z" fill="#F3A660"/>
<path fill-rule="evenodd" clip-rule="evenodd" d="M30.2125 24.5473C30.2125 24.2656 30.4409 24.0371 30.7227 24.0371H33.6754C33.9572 24.0371 34.1856 24.2656 34.1856 24.5473V30.4527C34.1856 30.7344 33.9572 30.9629 33.6754 30.9629H30.7227C30.4409 30.9629 30.2125 30.7344 30.2125 30.4527V24.5473ZM31.2329 29.9425H33.1652V25.0575H31.2329V29.9425Z" fill="#F3A660"/>
<path fill-rule="evenodd" clip-rule="evenodd" d="M36.5498 24.0371C35.7312 24.0371 35.0675 24.7008 35.0675 25.5194C35.0675 26.3381 35.7312 27.0017 36.5498 27.0017C37.3684 27.0017 38.0321 26.3381 38.0321 25.5194C38.0321 24.7008 37.3684 24.0371 36.5498 24.0371ZM36.0879 25.5194C36.0879 25.2643 36.2947 25.0575 36.5498 25.0575C36.8049 25.0575 37.0117 25.2643 37.0117 25.5194C37.0117 25.7745 36.8049 25.9813 36.5498 25.9813C36.2947 25.9813 36.0879 25.7745 36.0879 25.5194Z" fill="#F3A660"/>
</svg>
